<?xml version="1.0" encoding="utf-8"?>
<!-- Generator: Adobe Illustrator 27.0.0, SVG Export Plug-In . SVG Version: 6.00 Build 0)  -->
<svg version="1.1" id="Layer_1" xmlns="http://www.w3.org/2000/svg" xmlns:xlink="http://www.w3.org/1999/xlink" x="0px" y="0px"
	 viewBox="0 0 31.9 32" style="enable-background:new 0 0 31.9 32;" xml:space="preserve">
<style type="text/css">
	.st0{fill:#A55B27;}
	.st1{fill:#E06D2E;}
	.st2{opacity:0.24;fill:#E06D2E;}
	.st3{fill:#9B4B16;}
	.st4{fill:#AD6629;}
	.st5{opacity:0.45;fill:#F6C698;}
	.st6{opacity:0.5;fill:#D38F5F;}
	.st7{opacity:0.49;fill:#C87345;}
	.st8{opacity:0.6;fill:#FAD3C4;}
	.st9{fill:#FFFFFF;}
</style>
<g>
	<g>
		<g>
			<path class="st0" d="M29.6,6.9c-0.2-0.4-0.5-0.7-0.9-1c-0.2-0.2-0.4-0.3-0.7-0.4c0,0-0.1-0.1-0.1-0.1c-0.1-0.1-0.3-0.2-0.4-0.3
				c-0.3-0.2-0.6-0.4-1-0.5c-0.2-0.1-0.4-0.2-0.7-0.2c-1.1-0.3-2.5-0.4-3.8-0.2c-0.1,0-0.3,0-0.4,0.1c-0.1,0-0.3,0.1-0.4,0.1
				c-0.3,0.1-0.5,0.1-0.8,0.2c-0.1,0-0.3,0.1-0.4,0.1c-0.1,0-0.1,0.1-0.2,0.1c-0.4,0.1-0.7,0.3-1.1,0.4c-0.1,0.1-0.3,0.1-0.4,0.2
				c-0.2,0.1-0.4,0.2-0.6,0.3c-0.2,0.1-0.4,0.2-0.6,0.4c-0.7,0.5-1.4,1-2.1,1.6c-0.2,0.2-0.4,0.4-0.7,0.6c0,0-0.1,0.1-0.1,0.1
				c-0.3,0.3-0.6,0.5-0.8,0.8c-0.2,0.2-0.4,0.4-0.6,0.6c-0.1,0.1-0.2,0.2-0.3,0.3c0,0,0,0,0,0c-0.1,0.1-0.1,0.2-0.2,0.3
				c-0.1,0.1-0.2,0.2-0.2,0.3c0,0,0,0,0,0c0,0,0,0,0,0c-0.1,0-0.2,0-0.3,0c0,0-0.1,0-0.1,0c-0.1,0-0.1,0-0.2,0c0,0-0.1,0-0.1,0
				c-0.1,0-0.1,0-0.2,0c0,0-0.1,0-0.1,0c-0.1,0-0.2,0-0.2,0c0,0-0.1,0-0.1,0c-0.1,0-0.2,0-0.2,0c0,0-0.1,0-0.1,0c-0.1,0-0.1,0-0.2,0
				c0,0-0.1,0-0.1,0c0,0-0.1,0-0.1,0c0,0-0.1,0-0.1,0c0,0-0.1,0-0.1,0c-0.1,0-0.2,0.1-0.3,0.1c0,0-0.1,0-0.1,0c-0.1,0-0.1,0-0.2,0.1
				c0,0-0.1,0-0.1,0c0,0-0.1,0-0.1,0c0,0-0.1,0-0.1,0c0,0-0.1,0-0.1,0c-0.1,0-0.1,0-0.2,0.1c0,0,0,0-0.1,0c-0.1,0.1-0.3,0.1-0.4,0.2
				c-0.3,0.1-0.6,0.3-1,0.5c-0.1,0.1-0.3,0.1-0.4,0.2C4.8,13.6,3,15.2,2.1,17c-0.4,0.8-0.7,1.6-0.8,2.4c0,0.1,0,0.3,0,0.4
				c0,0.1,0,0.2,0,0.3c0,0-0.1,0-0.1,0c0.1,1.2,0.2,2.4,0.7,3.5c0.5,1.1,1.3,2.1,2.3,2.8c0.9,0.7,2,1.2,3,1.6c1,0.4,2,0.7,3.1,0.8
				c2,0.2,4-0.2,5.9-0.9c2-0.7,3.8-1.8,5.6-2.9c0.9-0.6,1.8-1.2,2.6-1.9c0.3-0.2,0.6-0.5,0.9-0.7c3.3-2.9,6.7-7.6,5.7-12.3
				C30.8,9,30.3,7.9,29.6,6.9z M8.7,25.2c-0.2-0.1-0.4-0.1-0.5-0.2c-0.3-0.1-0.6-0.3-0.8-0.4c-0.2-0.1-0.4-0.3-0.6-0.4
				c0,0-0.1-0.1-0.1-0.1c-0.4-0.3-0.8-0.7-1.1-1.2c-0.1-0.1-0.1-0.2-0.2-0.3c0-0.1-0.1-0.1-0.1-0.2c0,0,0,0,0,0c0,0,0-0.1-0.1-0.1
				c0,0,0,0,0,0C5.1,22.1,5.1,22,5,22c0,0,0,0,0,0c0-0.1,0-0.1-0.1-0.2c0,0,0,0,0,0c0-0.1-0.1-0.3-0.1-0.4c0,0,0,0,0,0
				c0-0.1,0-0.1-0.1-0.2c0,0,0,0,0,0c0-0.1,0-0.1,0-0.2c-0.1-0.3-0.1-0.5-0.1-0.8c0-0.2,0-0.4,0-0.6c0.1-0.4,0.2-0.8,0.3-1.2
				c0.4-0.8,0.9-1.5,1.5-2.1c0.3-0.3,0.7-0.6,1.1-0.9c0.4-0.3,0.8-0.6,1.2-0.8c0.3-0.1,0.6-0.2,0.9-0.2c0.1,0,0.3,0.1,0.4,0.2
				c0.1,0.1,0.1,0.3,0.1,0.5c0,0.2,0,0.3,0,0.5c0,0.2,0,0.4,0.1,0.6c0.1,0.4,0.2,0.8,0.5,1.2c0.4,0.7,1,1.3,1.8,1.7
				c0.4,0.2,0.8,0.3,1.3,0.3c0.3,0.1,0.7,0.1,1,0.3c0,0,0,0,0.1,0c-0.1,0.2-0.2,0.3-0.3,0.5c0,0.1-0.1,0.1-0.1,0.2
				c-0.5,0.9-1.1,1.8-1.7,2.7c-0.2,0.3-0.4,0.6-0.6,0.8c-0.3,0.5-0.6,0.9-0.9,1.4c0,0.1-0.1,0.1-0.1,0.2c-0.1,0.1-0.1,0.2-0.2,0.3
				c0,0,0,0,0,0l0,0c-0.1,0-0.2,0-0.3,0c-0.1,0-0.2,0-0.3,0c-0.2,0-0.4-0.1-0.6-0.1C9.3,25.4,9,25.3,8.7,25.2z M22.9,21.1
				c-0.3,0.3-0.6,0.5-1,0.8c-0.6,0.4-1.2,0.9-1.8,1.2c-0.2,0.1-0.5,0.3-0.7,0.4c-0.3,0.2-0.7,0.4-1,0.5c-0.1,0.1-0.3,0.1-0.4,0.2
				c-1,0.5-2.1,0.9-3.1,1.1c-0.1,0-0.1,0-0.2,0c-0.1,0-0.2,0-0.3,0.1c0-0.1,0.1-0.2,0.1-0.2c0.1-0.2,0.2-0.4,0.3-0.5
				c0.1-0.2,0.2-0.4,0.3-0.6c0.1-0.3,0.3-0.5,0.4-0.7c0.1-0.2,0.2-0.3,0.3-0.5c0.5-0.8,1-1.5,1.4-2.3c0.1-0.2,0.2-0.4,0.3-0.6
				c0-0.1,0.1-0.2,0.1-0.3c0.3-0.4,0.7-0.7,1.1-1c0.5-0.4,1.2-0.7,1.8-0.9c1-0.4,2.1-0.7,3.2-0.5c0.2,0,0.5,0.1,0.7,0.2
				c0.3,0.1,0.5,0.3,0.5,0.5c0,0.1,0,0.2,0,0.4c0,0.1-0.1,0.1-0.1,0.2c-0.1,0.1-0.1,0.2-0.2,0.3C24.2,19.6,23.6,20.4,22.9,21.1z
				 M26.6,12.7C26.6,12.7,26.6,12.7,26.6,12.7c0,0.2,0,0.3,0,0.5c0,0,0,0.1,0,0.1c0,0.1,0,0.1,0,0.2c0,0.1,0,0.2,0,0.3c0,0,0,0,0,0
				c0,0,0,0.1,0,0.1c-0.2,0-0.4,0-0.6,0.1c0,0,0,0,0,0c-0.1,0-0.2,0-0.3,0c0,0,0,0,0,0c0,0-0.1,0-0.1,0c0,0-0.1,0-0.1,0
				c0,0-0.1,0-0.1,0c0,0-0.1,0-0.1,0c0,0-0.1,0-0.1,0c0,0-0.1,0-0.1,0c0,0-0.1,0-0.1,0c0,0,0,0-0.1,0c0,0-0.1,0-0.1,0
				c0,0-0.1,0-0.1,0c0,0-0.1,0-0.1,0c0,0-0.1,0-0.1,0c0,0-0.1,0-0.1,0c-0.1,0-0.1,0-0.2,0c0,0-0.1,0-0.1,0c-0.3,0.1-0.5,0.1-0.8,0.2
				c-1.6,0.4-3.2,0.9-4.8,1.1c-0.1,0-0.2,0-0.2,0c0-0.1,0-0.2,0-0.3c0-0.5-0.1-1-0.2-1.5c-0.1-0.4-0.3-0.8-0.6-1.1
				c-0.3-0.3-0.6-0.5-0.9-0.8c-0.2-0.2-0.4-0.5-0.4-0.9c0-0.3,0.2-0.6,0.4-0.9c0.5-0.6,1.1-1,1.8-1.4c0.7-0.4,1.5-0.8,2.3-1
				c1.3-0.3,2.9-0.1,3.9,0.8c0.6,0.5,1.2,1.2,1.5,2c0.1,0.4,0.2,0.8,0.3,1.2c0,0.4-0.1,0.7-0.1,1.1c0,0.2,0,0.4,0,0.5
				c0,0.1,0,0.1,0.1,0.1c0.1,0,0.1-0.1,0.1-0.2c0-0.4,0.1-0.7,0.2-1.1c0,0,0,0,0,0c0,0,0,0.1,0,0.1C26.6,12.4,26.6,12.6,26.6,12.7z
				 M30.9,12.6c0-0.3,0.1-0.6,0.1-0.9C31,12.1,31,12.3,30.9,12.6z"/>
			<path class="st0" d="M16.5,9.9C16.5,9.9,16.5,9.9,16.5,9.9C16.5,9.9,16.5,9.9,16.5,9.9z"/>
			<path class="st0" d="M23,23.9C23,23.9,23,23.9,23,23.9C23,23.9,23,23.9,23,23.9z"/>
		</g>
		<g>
			<path class="st1" d="M29.4,6.7c-0.2-0.4-0.5-0.7-0.9-1c-0.2-0.2-0.4-0.3-0.7-0.4c0,0-0.1-0.1-0.1-0.1c-0.1-0.1-0.3-0.2-0.4-0.3
				c-0.3-0.2-0.6-0.4-1-0.5c-0.2-0.1-0.4-0.2-0.7-0.2c-1.1-0.3-2.5-0.4-3.8-0.2c-0.1,0-0.3,0-0.4,0.1C21.4,4,21.3,4,21.1,4
				c-0.3,0.1-0.5,0.1-0.8,0.2c-0.1,0-0.3,0.1-0.4,0.1c-0.1,0-0.1,0.1-0.2,0.1C19.3,4.6,19,4.8,18.6,5c-0.1,0.1-0.3,0.1-0.4,0.2
				c-0.2,0.1-0.4,0.2-0.6,0.3c-0.2,0.1-0.4,0.2-0.6,0.4c-0.7,0.5-1.4,1-2.1,1.6c-0.2,0.2-0.4,0.4-0.7,0.6c0,0-0.1,0.1-0.1,0.1
				c-0.3,0.3-0.6,0.5-0.8,0.8c-0.2,0.2-0.4,0.4-0.6,0.6c-0.1,0.1-0.2,0.2-0.3,0.3c0,0,0,0,0,0c-0.1,0.1-0.1,0.2-0.2,0.3
				c-0.1,0.1-0.2,0.2-0.2,0.3c0,0,0,0,0,0c0,0,0,0,0,0c-0.1,0-0.2,0-0.3,0c0,0-0.1,0-0.1,0c-0.1,0-0.1,0-0.2,0c0,0-0.1,0-0.1,0
				c-0.1,0-0.1,0-0.2,0c0,0-0.1,0-0.1,0c-0.1,0-0.2,0-0.2,0c0,0-0.1,0-0.1,0c-0.1,0-0.2,0-0.2,0c0,0-0.1,0-0.1,0c-0.1,0-0.1,0-0.2,0
				c0,0-0.1,0-0.1,0c0,0-0.1,0-0.1,0c0,0-0.1,0-0.1,0c0,0-0.1,0-0.1,0C9.5,11,9.4,11,9.3,11c0,0-0.1,0-0.1,0c-0.1,0-0.1,0-0.2,0.1
				c0,0-0.1,0-0.1,0c0,0-0.1,0-0.1,0c0,0-0.1,0-0.1,0c0,0-0.1,0-0.1,0c-0.1,0-0.1,0-0.2,0.1c0,0,0,0-0.1,0c-0.1,0.1-0.3,0.1-0.4,0.2
				c-0.3,0.1-0.6,0.3-1,0.5c-0.1,0.1-0.3,0.1-0.4,0.2c-1.9,1.1-3.6,2.8-4.6,4.5c-0.4,0.8-0.7,1.6-0.8,2.4c0,0.1,0,0.3,0,0.4
				c0,0.1,0,0.2,0,0.3c0,0-0.1,0-0.1,0c0.1,1.2,0.2,2.4,0.7,3.5C2.2,24.5,3,25.5,4,26.2c0.9,0.7,2,1.2,3,1.6c1,0.4,2,0.7,3.1,0.8
				c2,0.2,4-0.2,5.9-0.9c2-0.7,3.8-1.8,5.6-2.9c0.9-0.6,1.8-1.2,2.6-1.9c0.3-0.2,0.6-0.5,0.9-0.7c3.3-2.9,6.7-7.6,5.7-12.3
				C30.7,8.7,30.1,7.6,29.4,6.7z M8.6,25c-0.2-0.1-0.4-0.1-0.5-0.2c-0.3-0.1-0.6-0.3-0.8-0.4c-0.2-0.1-0.4-0.3-0.6-0.4
				c0,0-0.1-0.1-0.1-0.1c-0.4-0.3-0.8-0.7-1.1-1.2c-0.1-0.1-0.1-0.2-0.2-0.3c0-0.1-0.1-0.1-0.1-0.2c0,0,0,0,0,0C5,22.1,5,22,5,22
				c0,0,0,0,0,0c0-0.1-0.1-0.1-0.1-0.2c0,0,0,0,0,0c0-0.1,0-0.1-0.1-0.2c0,0,0,0,0,0c0-0.1-0.1-0.3-0.1-0.4c0,0,0,0,0,0
				c0-0.1,0-0.1-0.1-0.2c0,0,0,0,0,0c0-0.1,0-0.1,0-0.2c-0.1-0.3-0.1-0.5-0.1-0.8c0-0.2,0-0.4,0-0.6c0.1-0.4,0.2-0.8,0.3-1.2
				c0.4-0.8,0.9-1.5,1.5-2.1C6.7,15.6,7,15.3,7.4,15c0.4-0.3,0.8-0.6,1.2-0.8c0.3-0.1,0.6-0.2,0.9-0.2c0.1,0,0.3,0.1,0.4,0.2
				c0.1,0.1,0.1,0.3,0.1,0.5c0,0.2,0,0.3,0,0.5c0,0.2,0,0.4,0.1,0.6c0.1,0.4,0.2,0.8,0.5,1.2c0.4,0.7,1,1.3,1.8,1.7
				c0.4,0.2,0.8,0.3,1.3,0.3c0.3,0.1,0.7,0.1,1,0.3c0,0,0,0,0.1,0c-0.1,0.2-0.2,0.3-0.3,0.5c0,0.1-0.1,0.1-0.1,0.2
				c-0.5,0.9-1.1,1.8-1.7,2.7c-0.2,0.3-0.4,0.6-0.6,0.8c-0.3,0.5-0.6,0.9-0.9,1.4c0,0.1-0.1,0.1-0.1,0.2c-0.1,0.1-0.1,0.2-0.2,0.3
				c0,0,0,0,0,0h0c-0.1,0-0.2,0-0.3,0c-0.1,0-0.2,0-0.3,0c-0.2,0-0.4-0.1-0.6-0.1C9.2,25.2,8.9,25.1,8.6,25z M22.8,20.8
				c-0.3,0.3-0.6,0.5-1,0.8c-0.6,0.4-1.2,0.9-1.8,1.2c-0.2,0.1-0.5,0.3-0.7,0.4c-0.3,0.2-0.7,0.4-1,0.5c-0.1,0.1-0.3,0.1-0.4,0.2
				c-1,0.5-2.1,0.9-3.1,1.1c-0.1,0-0.1,0-0.2,0c-0.1,0-0.2,0-0.3,0.1c0-0.1,0.1-0.2,0.1-0.2c0.1-0.2,0.2-0.4,0.3-0.5
				c0.1-0.2,0.2-0.4,0.3-0.6c0.1-0.3,0.3-0.5,0.4-0.7c0.1-0.2,0.2-0.3,0.3-0.5c0.5-0.8,1-1.5,1.4-2.3c0.1-0.2,0.2-0.4,0.3-0.6
				c0-0.1,0.1-0.2,0.1-0.3c0.3-0.4,0.7-0.7,1.1-1c0.5-0.4,1.2-0.7,1.8-0.9c1-0.4,2.1-0.7,3.2-0.5c0.2,0,0.5,0.1,0.7,0.2
				c0.3,0.1,0.5,0.3,0.5,0.5c0,0.1,0,0.2,0,0.4c0,0.1-0.1,0.1-0.1,0.2c-0.1,0.1-0.1,0.2-0.2,0.3C24.1,19.4,23.5,20.1,22.8,20.8z
				 M26.5,12.5C26.5,12.5,26.5,12.5,26.5,12.5c0,0.2,0,0.3,0,0.5c0,0,0,0.1,0,0.1c0,0.1,0,0.1,0,0.2c0,0.1,0,0.2,0,0.3c0,0,0,0,0,0
				c0,0,0,0.1,0,0.1c-0.2,0-0.4,0-0.6,0.1c0,0,0,0,0,0c-0.1,0-0.2,0-0.3,0c0,0,0,0,0,0c0,0-0.1,0-0.1,0c0,0-0.1,0-0.1,0
				c0,0-0.1,0-0.1,0c0,0-0.1,0-0.1,0c0,0-0.1,0-0.1,0c0,0-0.1,0-0.1,0c0,0-0.1,0-0.1,0c0,0,0,0-0.1,0c0,0-0.1,0-0.1,0
				c0,0-0.1,0-0.1,0c0,0-0.1,0-0.1,0c0,0-0.1,0-0.1,0c0,0-0.1,0-0.1,0c-0.1,0-0.1,0-0.2,0c0,0-0.1,0-0.1,0c-0.3,0.1-0.5,0.1-0.8,0.2
				c-1.6,0.4-3.2,0.9-4.8,1.1c-0.1,0-0.2,0-0.2,0c0-0.1,0-0.2,0-0.3c0-0.5-0.1-1-0.2-1.5c-0.1-0.4-0.3-0.8-0.6-1.1
				c-0.3-0.3-0.6-0.5-0.9-0.8c-0.2-0.2-0.4-0.5-0.4-0.9c0-0.3,0.2-0.6,0.4-0.9c0.5-0.6,1.1-1,1.8-1.4c0.7-0.4,1.5-0.8,2.3-1
				c1.3-0.3,2.9-0.1,3.9,0.8c0.6,0.5,1.2,1.2,1.5,2c0.1,0.4,0.2,0.8,0.3,1.2c0,0.4-0.1,0.7-0.1,1.1c0,0.2,0,0.4,0,0.5
				c0,0.1,0,0.1,0.1,0.1c0.1,0,0.1-0.1,0.1-0.2c0-0.4,0.1-0.7,0.2-1.1c0,0,0,0,0,0c0,0,0,0.1,0,0.1C26.5,12.2,26.5,12.3,26.5,12.5z
				 M30.8,12.4c0-0.3,0.1-0.6,0.1-0.9C30.9,11.8,30.8,12.1,30.8,12.4z"/>
			<path class="st2" d="M29.4,6.7c-0.2-0.4-0.5-0.7-0.9-1c-0.2-0.2-0.4-0.3-0.7-0.4c0,0-0.1-0.1-0.1-0.1c-0.1-0.1-0.3-0.2-0.4-0.3
				c-0.3-0.2-0.6-0.4-1-0.5c-0.2-0.1-0.4-0.2-0.7-0.2c-1.1-0.3-2.5-0.4-3.8-0.2c-0.1,0-0.3,0-0.4,0.1C21.4,4,21.3,4,21.1,4
				c-0.3,0.1-0.5,0.1-0.8,0.2c-0.1,0-0.3,0.1-0.4,0.1c-0.1,0-0.1,0.1-0.2,0.1C19.3,4.6,19,4.8,18.6,5c-0.1,0.1-0.3,0.1-0.4,0.2
				c-0.2,0.1-0.4,0.2-0.6,0.3c-0.2,0.1-0.4,0.2-0.6,0.4c-0.7,0.5-1.4,1-2.1,1.6c-0.2,0.2-0.4,0.4-0.7,0.6c0,0-0.1,0.1-0.1,0.1
				c-0.3,0.3-0.6,0.5-0.8,0.8c-0.2,0.2-0.4,0.4-0.6,0.6c-0.1,0.1-0.2,0.2-0.3,0.3c0,0,0,0,0,0c-0.1,0.1-0.1,0.2-0.2,0.3
				c-0.1,0.1-0.2,0.2-0.2,0.3c0,0,0,0,0,0c0,0,0,0,0,0c-0.1,0-0.2,0-0.3,0c0,0-0.1,0-0.1,0c-0.1,0-0.1,0-0.2,0c0,0-0.1,0-0.1,0
				c-0.1,0-0.1,0-0.2,0c0,0-0.1,0-0.1,0c-0.1,0-0.2,0-0.2,0c0,0-0.1,0-0.1,0c-0.1,0-0.2,0-0.2,0c0,0-0.1,0-0.1,0c-0.1,0-0.1,0-0.2,0
				c0,0-0.1,0-0.1,0c0,0-0.1,0-0.1,0c0,0-0.1,0-0.1,0c0,0-0.1,0-0.1,0C9.5,11,9.4,11,9.3,11c0,0-0.1,0-0.1,0c-0.1,0-0.1,0-0.2,0.1
				c0,0-0.1,0-0.1,0c0,0-0.1,0-0.1,0c0,0-0.1,0-0.1,0c0,0-0.1,0-0.1,0c-0.1,0-0.1,0-0.2,0.1c0,0,0,0-0.1,0c-0.1,0.1-0.3,0.1-0.4,0.2
				c-0.3,0.1-0.6,0.3-1,0.5c-0.1,0.1-0.3,0.1-0.4,0.2c-1.9,1.1-3.6,2.8-4.6,4.5c-0.4,0.8-0.7,1.6-0.8,2.4c0,0.1,0,0.3,0,0.4
				c0,0.1,0,0.2,0,0.3c0,0-0.1,0-0.1,0c0.1,1.2,0.2,2.4,0.7,3.5c0.4,0.8,0.9,1.5,1.5,2.2c0,0,0,0,0,0c1.1,0.8,2.4,1.5,3.7,1.9
				c1.3,0.4,2.6,0.6,3.9,0.6c1.4,0,2.7-0.2,4-0.6c1.4-0.4,2.7-0.9,4-1.5c1.3-0.7,2.5-1.4,3.7-2.3c1.1-0.9,2.2-1.9,3.2-3
				c0.9-1.1,1.8-2.2,2.5-3.4c0.7-1.2,1.2-2.4,1.6-3.7c0.5-1.6,0.7-3.2,0.5-4.8c0-0.1,0-0.3,0-0.5C30.1,7.7,29.8,7.2,29.4,6.7z
				 M11.9,23.6c-0.3,0.5-0.6,0.9-0.9,1.4c0,0.1-0.1,0.1-0.1,0.2c-0.1,0.1-0.1,0.2-0.2,0.3c0,0,0,0,0,0h0c-0.1,0-0.2,0-0.3,0
				c-0.1,0-0.2,0-0.3,0c-0.2,0-0.4-0.1-0.6-0.1c-0.3-0.1-0.6-0.2-0.9-0.3c-0.2-0.1-0.4-0.1-0.5-0.2c-0.3-0.1-0.6-0.3-0.8-0.4
				c-0.2-0.1-0.4-0.3-0.6-0.4c0,0-0.1-0.1-0.1-0.1c-0.4-0.3-0.8-0.7-1.1-1.2c-0.1-0.1-0.1-0.2-0.2-0.3c0-0.1-0.1-0.1-0.1-0.2
				c0,0,0,0,0,0C5,22.1,5,22,5,22c0,0,0,0,0,0c0-0.1-0.1-0.1-0.1-0.2c0,0,0,0,0,0c0-0.1,0-0.1-0.1-0.2c0,0,0,0,0,0
				c0-0.1-0.1-0.3-0.1-0.4c0,0,0,0,0,0c0-0.1,0-0.1-0.1-0.2c0,0,0,0,0,0c0-0.1,0-0.1,0-0.2c-0.1-0.3-0.1-0.5-0.1-0.8
				c0-0.2,0-0.4,0-0.6c0.1-0.4,0.2-0.8,0.3-1.2c0.4-0.8,0.9-1.5,1.5-2.1C6.7,15.6,7,15.3,7.4,15c0.4-0.3,0.8-0.6,1.2-0.8
				c0.3-0.1,0.6-0.2,0.9-0.2c0.1,0,0.3,0.1,0.4,0.2c0.1,0.1,0.1,0.3,0.1,0.5c0,0.2,0,0.3,0,0.5c0,0.2,0,0.4,0.1,0.6
				c0.1,0.4,0.2,0.8,0.5,1.2c0.4,0.7,1,1.3,1.8,1.7c0.4,0.2,0.8,0.3,1.3,0.3c0.3,0.1,0.7,0.1,1,0.3c0,0,0,0,0.1,0
				c-0.1,0.2-0.2,0.3-0.3,0.5c0,0.1-0.1,0.1-0.1,0.2c-0.5,0.9-1.1,1.8-1.7,2.7C12.3,23,12.1,23.3,11.9,23.6z M24.9,17.7
				c0,0.1,0,0.2,0,0.4c0,0.1-0.1,0.1-0.1,0.2c-0.1,0.1-0.1,0.2-0.2,0.3c-0.5,0.8-1.1,1.5-1.8,2.2c-0.3,0.3-0.6,0.5-1,0.8
				c-0.6,0.4-1.2,0.9-1.8,1.2c-0.2,0.1-0.5,0.3-0.7,0.4c-0.3,0.2-0.7,0.4-1,0.5c-0.1,0.1-0.3,0.1-0.4,0.2c-1,0.5-2.1,0.9-3.1,1.1
				c-0.1,0-0.1,0-0.2,0c-0.1,0-0.2,0-0.3,0.1c0-0.1,0.1-0.2,0.1-0.2c0.1-0.2,0.2-0.4,0.3-0.5c0.1-0.2,0.2-0.4,0.3-0.6
				c0.1-0.3,0.3-0.5,0.4-0.7c0.1-0.2,0.2-0.3,0.3-0.5c0.5-0.8,1-1.5,1.4-2.3c0.1-0.2,0.2-0.4,0.3-0.6c0-0.1,0.1-0.2,0.1-0.3
				c0.3-0.4,0.7-0.7,1.1-1c0.5-0.4,1.2-0.7,1.8-0.9c1-0.4,2.1-0.7,3.2-0.5c0.2,0,0.5,0.1,0.7,0.2C24.7,17.3,24.9,17.4,24.9,17.7z
				 M26,10.3c0.1,0.4,0.2,0.8,0.3,1.2c0,0.4-0.1,0.7-0.1,1.1c0,0.2,0,0.4,0,0.5c0,0.1,0,0.1,0.1,0.1c0.1,0,0.1-0.1,0.1-0.2
				c0-0.4,0.1-0.7,0.2-1.1c0,0,0,0,0,0c0,0,0,0.1,0,0.1c0,0.2,0,0.3,0,0.5c0,0,0,0,0,0c0,0.2,0,0.3,0,0.5c0,0,0,0.1,0,0.1
				c0,0.1,0,0.1,0,0.2c0,0.1,0,0.2,0,0.3c0,0,0,0,0,0c0,0,0,0.1,0,0.1c-0.2,0-0.4,0-0.6,0.1c0,0,0,0,0,0c-0.1,0-0.2,0-0.3,0
				c0,0,0,0,0,0c0,0-0.1,0-0.1,0c0,0-0.1,0-0.1,0c0,0-0.1,0-0.1,0c0,0-0.1,0-0.1,0c0,0-0.1,0-0.1,0c0,0-0.1,0-0.1,0c0,0-0.1,0-0.1,0
				c0,0,0,0-0.1,0c0,0-0.1,0-0.1,0c0,0-0.1,0-0.1,0c0,0-0.1,0-0.1,0c0,0-0.1,0-0.1,0c0,0-0.1,0-0.1,0c-0.1,0-0.1,0-0.2,0
				c0,0-0.1,0-0.1,0c-0.3,0.1-0.5,0.1-0.8,0.2c-1.6,0.4-3.2,0.9-4.8,1.1c-0.1,0-0.2,0-0.2,0c0-0.1,0-0.2,0-0.3c0-0.5-0.1-1-0.2-1.5
				c-0.1-0.4-0.3-0.8-0.6-1.1c-0.3-0.3-0.6-0.5-0.9-0.8c-0.2-0.2-0.4-0.4-0.4-0.7c-0.4-0.2-0.7-0.5-0.7-0.9c0-0.3,0.2-0.6,0.4-0.9
				c0.3-0.3,0.6-0.6,1-0.8C17.2,8.2,17.6,8,18,7.8c0.4-0.2,0.7-0.3,1.1-0.4C19.5,7.2,19.9,7,20.4,7c0.6-0.1,1.2-0.1,1.8,0
				c0.3,0.1,0.6,0.2,0.9,0.3c0.3,0.1,0.5,0.2,0.8,0.4c0.4,0.3,0.7,0.6,0.9,0.9C25.3,9.1,25.7,9.6,26,10.3z"/>
			<path class="st3" d="M16.4,9.7C16.4,9.7,16.4,9.7,16.4,9.7C16.4,9.7,16.4,9.7,16.4,9.7z"/>
			<path class="st3" d="M22.8,23.7C22.8,23.7,22.8,23.7,22.8,23.7C22.8,23.7,22.8,23.7,22.8,23.7z"/>
		</g>
	</g>
	<g>
		<g>
			<g>
				<g>
					<path class="st4" d="M28.3,5.4c-0.7-0.7-1.3-1.3-2.2-1.7c-1.7-0.7-3.9-0.7-6.1,0c-1.1,0.4-2.3,0.9-3.3,1.6
						c-1,0.7-1.9,1.4-2.8,2.2C13,8.2,12.2,9.1,11.6,10c-1.6,0-3.4,0.6-5,1.4c-2.1,1.1-4,2.9-5,4.7C1,17.1,0.7,18,0.7,19
						c0,0.6,0,1.1,0.1,1.7c0.1,0.6,0.2,1.1,0.4,1.6c0.4,1,1.1,1.8,1.9,2.5c0.8,0.7,1.7,1.3,2.7,1.8c1,0.4,2.2,0.7,3.4,0.8
						c0.3,0,0.7,0.1,1.1,0.1c0.1,0.2,0.3,0.3,0.6,0.3c0.4,0.1,0.9-0.1,1.3-0.4c0.3,0,0.5-0.1,0.8-0.1c2.6-0.5,5.2-1.7,7.6-3.1
						c0.5-0.3,1-0.7,1.5-1c0.4-0.2,0.8-0.5,1.1-0.8c1.1-0.9,2.1-1.8,3.1-2.8c1.6-1.7,2.9-3.6,3.6-5.6c0.4-1,0.6-2,0.6-3
						c0-1.1-0.2-2.1-0.6-3C29.5,7,29,6.1,28.3,5.4z M10.7,24.4c-0.1,0.2-0.2,0.3-0.3,0.5c-0.2,0-0.4,0-0.7-0.1
						c-0.5-0.1-1-0.2-1.5-0.4c-0.5-0.2-1-0.4-1.4-0.6c-0.9-0.5-1.6-1.2-2-2c-0.4-0.7-0.7-1.6-0.7-2.5c-0.1-0.9,0.1-1.8,0.6-2.8
						c0.5-1,1.2-1.9,2.2-2.6c1-0.7,2.1-1.1,3.2-1.1c0,0,0,0.1,0,0.1c-0.3,1.1-0.4,2.2,0,3.1c0.4,0.9,1.2,1.6,2.3,1.9
						c0.7,0.2,1.4,0.2,2.2,0.1c0,0.1-0.1,0.2-0.1,0.3c-0.2,0.4-0.4,0.8-0.6,1.1c-0.5,0.9-1.1,1.8-1.7,2.7
						C11.7,22.9,11.1,23.6,10.7,24.4z M24.4,17.7c-0.6,0.9-1.2,1.8-2,2.6c-0.8,0.7-1.8,1.5-2.8,2c-1.8,1.1-3.7,1.9-5.7,2.4
						c0.2-0.4,0.5-0.9,0.7-1.3c0.2-0.4,0.5-0.8,0.8-1.3c0.5-0.8,1-1.5,1.4-2.3c0.4-0.8,0.8-1.5,0.9-2.3c0.7-0.2,1.4-0.4,2-0.5
						c1.4-0.3,2.8-0.6,4.1-0.6c0.4,0,0.9,0.1,1.2,0.2C24.9,16.9,24.7,17.3,24.4,17.7z M26,10.5c0.2,0.7,0.2,1.5,0.1,2.3
						c0,0,0,0.1,0,0.1c-0.2,0-0.4,0-0.6,0.1c-0.9,0.1-1.8,0.3-2.7,0.5c-1.7,0.4-3.4,0.9-5.1,1.2c0.1-0.1,0-0.2,0-0.3
						c0-0.1,0-0.2,0-0.3c0-0.4-0.1-0.7-0.3-1c-0.3-0.6-0.7-1.2-1.2-1.7c-0.4-0.4-1-0.7-1.6-0.9C15,9.9,15.4,9.3,16,8.9
						c0.9-0.8,2-1.5,3.1-1.9c0.9-0.4,1.8-0.6,2.7-0.5c0.8,0,1.4,0.3,2,0.6c0.6,0.4,1,0.9,1.4,1.5C25.6,9.1,25.8,9.8,26,10.5z"/>
					<path class="st1" d="M10.2,27.2c-0.3,0-0.5,0-0.8,0c-1.2-0.1-2.3-0.4-3.3-0.8c-1-0.4-1.9-1-2.7-1.7c-0.8-0.7-1.5-1.5-1.9-2.5
						c-0.4-1-0.6-2.1-0.6-3.3c0-1.8,1.2-3.6,2.8-5.3c0.9-0.9,2.5-2,2.9-2.2c0.2-0.1,0.4-0.2,0.6-0.3c0.3-0.1,0.5-0.2,0.8-0.4
						c0.5-0.2,1-0.4,1.6-0.5c0.3-0.1,0.5-0.1,0.8-0.2c0.2,0,0.5-0.1,0.7-0.1c0.1,0,0.1,0,0.2,0c0,0,0,0,0,0c0.3,0,0.5,0,0.8,0
						c0.3,0,0.5,0,0.8,0c0.4,0,0.7,0.1,1.1,0.2c0.3,0.1,0.6,0.2,0.9,0.3c0.3,0.1,0.6,0.3,0.9,0.5c0.3,0.2,0.5,0.4,0.7,0.6
						c0.2,0.2,0.4,0.4,0.5,0.6c0.1,0.2,0.3,0.5,0.4,0.7c0.1,0.2,0.1,0.4,0.1,0.5c0,0.1,0.1,0.3,0.1,0.4c0,0.1,0,0.3,0.1,0.4
						c0,0.1,0,0.1,0,0.2c0,0,0,0.1,0,0.1c0,0,0,0,0,0c-0.7,0.1-1.3,0.1-1.9,0.1c-0.6,0-1.2-0.1-1.7-0.3c-0.4-0.2-0.6-0.4-0.7-0.8
						c0.1,0.1,0.2,0.2,0.3,0.4c0-0.1,0-0.2-0.1-0.3c-0.2-0.2-0.3-0.4-0.6-0.6c-0.6-0.4-1.4-0.6-2.2-0.6c-0.6,0-1.3,0-1.9,0.1
						c-0.1,0-0.2,0.1-0.3,0.1c-2.4,0.7-4.1,3.1-4.5,5c-0.2,1-0.2,1.9,0.1,2.8c0.1,0.2,0.1,0.4,0.2,0.6c0,0,0,0.1,0.1,0.1
						c0.3,0.5,0.6,1,1,1.5c0.4,0.4,0.9,0.8,1.4,1.1c0.5,0.3,1.1,0.5,1.7,0.7c0.3,0.1,0.6,0.2,0.9,0.3C9.7,25,10,25,10.3,25.1
						c0,0,0,0,0,0c0,0,0,0,0,0C10.1,25.6,10,26,10,26.5C10,26.7,10,27,10.2,27.2z"/>
					<path class="st1" d="M24.5,16.2c-0.3,0-0.6-0.1-0.9-0.1c-0.6,0-1.3,0.1-2,0.2c-0.7,0.1-1.5,0.3-2.2,0.5c-0.7,0.2-1.3,0.3-2,0.5
						c-0.2,0.1-0.4,0.1-0.7,0.2c-1,0.2-1.9,0.4-2.9,0.4c-0.5,0-0.9,0-1.3-0.1c-0.4-0.1-0.8-0.3-1.1-0.5c-0.7-0.4-1.1-1.1-1.3-1.8
						c-0.1-0.2-0.1-0.5-0.1-0.7c-0.1-0.7,0-1.4,0.3-2.1c0.9,0,1.8,0.2,2.4,0.6c0.1,0.1,0.2,0.1,0.3,0.2c0,0.1,0.1,0.3,0.1,0.4
						c0.1,0.1,0.2,0.3,0.3,0.4c0.2,0.2,0.4,0.3,0.7,0.4c0.2,0.1,0.5,0.2,0.8,0.2c0.3,0,0.6,0.1,0.9,0.1c0.5,0,1.1,0,1.6-0.1
						c0.1,0,0.2-0.1,0.3-0.1c0.2,0,0.3,0,0.5,0c0,0,0,0,0,0c0.2,0,0.3-0.1,0.5-0.1c0.3,0,0.6-0.1,0.9-0.2c0.2-0.1,0.5-0.1,0.7-0.2
						c0,0,0.1,0,0.1,0c0.3-0.1,0.7-0.2,1-0.2c0.2,0,0.3-0.1,0.5-0.1c0.2,0,0.4-0.1,0.6-0.1c0.7-0.2,1.5-0.3,2.2-0.5
						c0.6-0.1,1.3-0.2,1.9-0.2c0.3,0,0.6,0,0.9,0.1c0.2,0,0.4,0.1,0.6,0.2c0.2,0.1,0.4,0.2,0.5,0.4c0.1,0.1,0.1,0.3,0.2,0.4
						c0,0.1,0.1,0.3,0.1,0.4c0,0.7-0.4,2.1-1.5,2.1c0,0,0,0,0,0c-0.2,0-0.3,0.1-0.5,0c-0.1,0-0.2-0.1-0.3-0.1
						c-0.1,0-0.2-0.1-0.3-0.1c-0.2-0.1-0.5-0.2-0.7-0.2C25,16.3,24.8,16.2,24.5,16.2z"/>
					<path class="st1" d="M11.5,27.6c-1.1,0.3-1.4-0.7-1.4-1.4c0-0.3,0.1-0.6,0.2-0.9c0.1-0.2,0.2-0.4,0.3-0.6
						c0.4-0.7,0.9-1.4,1.3-2.1c0.6-0.9,1.2-1.8,1.7-2.7c0.4-0.6,0.7-1.2,1-1.9c0.4,0,0.8-0.1,1.1-0.2c0.6-0.1,1.2-0.3,1.7-0.4
						c-0.1,0.6-0.4,1.2-0.6,1.7c-0.4,0.8-0.8,1.5-1.3,2.3c-0.2,0.4-0.5,0.8-0.7,1.1c-0.3,0.4-0.5,0.9-0.7,1.3c-0.3,0.7-0.6,1.3-1,2
						C12.9,26.5,12.3,27.4,11.5,27.6z"/>
					<path class="st1" d="M30.3,11c0,1-0.3,2.1-0.7,3.2c-0.1,0.5-0.3,0.9-0.6,1.3c-0.4,0.7-0.8,1.3-1.3,2c-0.5,0.6-1,1.3-1.6,1.9
						c-0.6,0.6-1.2,1.2-1.9,1.8c-0.5,0.4-1,0.9-1.5,1.2c0,0,0,0,0,0C21,23.8,19,25,17,25.8c-1.3,0.5-2.6,1-3.8,1.2
						c-0.2,0-0.4,0.1-0.7,0.1c0,0,0.1-0.1,0.1-0.1c0.3-0.3,0.5-0.7,0.7-1c0.2-0.4,0.4-0.8,0.6-1.2c1.4-0.3,2.8-0.9,4.1-1.5
						c1.2-0.6,2.3-1.2,3.4-2c0.4-0.3,0.8-0.7,1.2-1c0.4-0.4,0.7-0.8,1.1-1.2c0.3-0.4,0.6-0.8,0.9-1.3c0.1-0.2,0.3-0.4,0.4-0.6
						c0.1-0.2,0.2-0.4,0.3-0.6c0,0,0,0,0,0c0.1,0,0.2,0,0.3,0.1c0.3,0.1,0.5,0.2,0.8,0.2c0.3,0.1,0.5,0.1,0.8,0.1
						c1.1-0.2,1.6-1.4,1.7-2.1c0.1-0.8-0.3-1.4-1-1.6c-0.2-0.1-0.4-0.1-0.6-0.2c0,0,0,0,0,0c0,0,0,0,0,0c-0.1,0-0.2,0-0.3,0
						c0,0,0,0,0,0c-0.1,0-0.2,0-0.4,0c0,0,0,0,0,0c-0.1,0-0.2,0-0.3,0c0.1-0.7,0.1-1.4,0-2c-0.1-0.8-0.3-1.5-0.6-2.2
						c-0.3-0.6-0.6-1.1-1.2-1.6c-0.5-0.4-1.2-0.8-1.9-0.9c-1.5-0.3-3.4,0.3-4.9,1.2C17,7.9,16.5,8.3,16,8.7
						c-0.6,0.5-1.1,1.1-1.4,1.7c0,0,0,0,0,0c0,0-0.1,0-0.1,0c0,0-0.1,0-0.1,0c-0.7-0.2-1.4-0.3-2.2-0.3c-0.1,0-0.2,0-0.3,0
						c1.3-1.7,3.1-3.3,5-4.6c1.9-1.3,4.2-2.1,6.2-2.1c0.2,0,0.5,0,0.7,0c0,0,0,0,0.1,0c0,0,0,0,0.1,0c0.5,0,0.9,0.1,1.3,0.2
						c0.4,0.1,0.8,0.3,1.1,0.5c0,0,0,0,0,0c0.8,0.4,1.4,1,1.9,1.5C29.5,7,30.3,8.9,30.3,11z"/>
				</g>
				<path class="st5" d="M28.3,5.4c-0.7-0.7-1.3-1.3-2.2-1.7c-1.7-0.7-3.9-0.7-6.1,0c-1.1,0.4-2.3,0.9-3.3,1.6
					c-1,0.7-1.9,1.4-2.8,2.2C13,8.2,12.2,9.1,11.6,10c-1.3,0-2.7,0.4-4.1,0.9c0.7-0.3,1.3-0.4,2-0.5c0.8-0.1,1.6-0.1,2.4,0.1
					c0.5,0.1,0.9,0.3,1.3,0.5c0.2,0.1,0.5,0.2,0.7,0.4c0.2,0.1,0.4,0.3,0.5,0.5c0.1,0.2,0.1,0.3,0,0.5c-0.1,0.2-0.3,0.4-0.6,0.5
					c-0.3,0.1-0.6,0.1-0.8,0c-0.3-0.1-0.5-0.2-0.8-0.3c-0.6-0.3-1.3-0.5-2.1-0.4c-1.6,0.1-3.3,0.7-4.6,1.8c-0.6,0.5-1.2,1.1-1.6,1.8
					c-0.5,0.7-0.7,1.4-0.9,2.2c-0.3,1.5,0,2.9,0.7,4c0.7,1.2,1.7,2.1,2.9,2.9C7,25,7.2,25.2,7.5,25.3c0.3,0.1,0.6,0.2,0.8,0.4
					c0.2,0.1,0.4,0.4,0.2,0.7c-0.2,0.3-0.5,0.4-0.8,0.4c-0.9,0.1-1.6-0.2-2.2-0.5c-0.1,0-0.2-0.1-0.3-0.1c0.2,0.1,0.5,0.2,0.7,0.3
					c1,0.4,2.2,0.7,3.4,0.8c0.3,0,0.7,0.1,1.1,0.1c0.1,0.2,0.3,0.3,0.6,0.3c0.4,0.1,0.9-0.1,1.3-0.4c0.3,0,0.5-0.1,0.8-0.1
					c2.6-0.5,5.2-1.7,7.6-3.1c0.5-0.3,1-0.7,1.5-1c0.4-0.2,0.8-0.5,1.1-0.8c1.1-0.9,2.1-1.8,3.1-2.8c1.6-1.7,2.9-3.6,3.6-5.6
					c0.4-1,0.6-2,0.6-3c0-1.1-0.2-2.1-0.6-3C29.5,7,29,6.1,28.3,5.4z M26.2,17.6c0.1,0.4-0.1,0.9-0.4,1.3c-0.3,0.5-0.7,0.9-1,1.3
					c-0.5,0.5-0.9,1-1.5,1.4c-0.6,0.5-1.2,1-1.9,1.4c-1.3,0.9-2.7,1.7-4.2,2.2c-0.5,0.2-1,0.4-1.5,0.5c-0.4,0.1-0.8,0.2-1.1,0.1
					c-0.1,0-0.3,0-0.4-0.1c-0.1-0.1-0.1-0.2,0-0.3c0.2-0.4,0.7-0.6,1.1-0.8c0.5-0.2,1-0.4,1.6-0.6c0.3-0.2,0.7-0.3,1-0.5
					c0.4-0.2,0.7-0.4,1.1-0.6c1.2-0.7,2.4-1.5,3.5-2.4c0.3-0.3,0.6-0.5,0.9-0.8c0.1-0.1,0.2-0.3,0.3-0.4c0.2-0.3,0.4-0.6,0.6-0.9
					c0.2-0.3,0.4-0.6,0.6-0.9c0.2-0.2,0.3-0.4,0.6-0.5C26,17,26.2,17.4,26.2,17.6z M14,24.6c0.2-0.4,0.5-0.9,0.7-1.3
					c0.2-0.4,0.5-0.8,0.8-1.3c0.5-0.8,1-1.5,1.4-2.3c0.4-0.8,0.8-1.5,0.9-2.3c0.7-0.2,1.4-0.4,2-0.5c1.4-0.3,2.8-0.6,4.1-0.6
					c0.4,0,0.9,0.1,1.2,0.2c-0.2,0.4-0.4,0.8-0.7,1.2c-0.6,0.9-1.2,1.8-2,2.6c-0.8,0.7-1.8,1.5-2.8,2C17.8,23.3,15.9,24.1,14,24.6z
					 M27.6,14.9c0,0.2-0.1,0.4-0.3,0.7C26.8,16,26.1,16,25.5,16c-0.3,0-0.6-0.1-0.9-0.1c-0.4,0-0.7-0.1-1.1-0.1
					c-0.9,0-1.8,0.1-2.7,0.2c-1,0.2-2,0.5-3,0.8c-1,0.3-1.9,0.6-2.9,0.9c-0.6,0.2-1.2,0.3-1.7,0.3c0.5,0,0.9,0,1.4,0
					c0,0.1-0.1,0.2-0.1,0.3c0,0.1-0.1,0.2-0.2,0.3c0.3-0.3,0.7-0.5,1.1-0.5c0.2,0,0.4,0.1,0.5,0.3c0.2,0.2,0.2,0.4,0.2,0.7
					c-0.1,0.5-0.5,1.1-0.8,1.6c-0.5,0.8-0.9,1.5-1.3,2.3c-0.4,0.8-0.8,1.5-1.2,2.3c-0.1,0.1-0.2,0.3-0.3,0.4
					c-0.1,0.1-0.2,0.2-0.3,0.3c-0.2,0.2-0.4,0.3-0.6,0.4c-0.2,0.1-0.4,0.1-0.6,0.1c-0.2-0.1-0.3-0.3-0.4-0.5
					c-0.1-0.2-0.1-0.5-0.1-0.8c0-0.3,0.1-0.6,0.2-0.9l0,0c-0.1,0.2-0.2,0.3-0.3,0.5c-0.2,0-0.4,0-0.7-0.1c-0.5-0.1-1-0.2-1.5-0.4
					c-0.5-0.2-1-0.4-1.4-0.6c-0.9-0.5-1.6-1.2-2-2c-0.4-0.7-0.7-1.6-0.7-2.5c-0.1-0.9,0.1-1.8,0.6-2.8c0.5-1,1.2-1.9,2.2-2.6
					c1-0.7,2.1-1.1,3.2-1.1c0,0,0,0.1,0,0.1c-0.3,1.1-0.4,2.2,0,3.1c0.1,0.4,0.4,0.7,0.6,1c-0.3-0.3-0.5-0.7-0.6-1.2
					c-0.1-0.4,0.1-1,0.6-1.3c0.4-0.3,0.9-0.3,1.3-0.2c0.5,0.1,0.9,0.3,1.3,0.5c0.2,0.1,0.4,0.2,0.6,0.3c0.1,0.1,0.3,0.2,0.5,0.2
					c0.6,0.2,1.4,0.2,2.1,0.2c0.7-0.1,1.5-0.2,2.2-0.4c0.8-0.2,1.5-0.4,2.3-0.6c0.8-0.2,1.5-0.4,2.3-0.5c0.8-0.1,1.7-0.2,2.5-0.2
					c0.6,0.1,1.2,0.2,1.6,0.6C27.4,14.5,27.6,14.7,27.6,14.9z M26,10.5c0.2,0.7,0.2,1.5,0.1,2.3c0,0,0,0.1,0,0.1
					c-0.2,0-0.4,0-0.6,0.1c-0.9,0.1-1.8,0.3-2.7,0.5c-1.7,0.4-3.4,0.9-5.1,1.2c0.1-0.1,0-0.2,0-0.3c0-0.1,0-0.2,0-0.3
					c0-0.4-0.1-0.7-0.3-1c-0.3-0.6-0.7-1.2-1.2-1.7c-0.4-0.4-1-0.7-1.6-0.9C15,9.9,15.4,9.3,16,8.9c0.9-0.8,2-1.5,3.1-1.9
					c0.9-0.4,1.8-0.6,2.7-0.5c0.8,0,1.4,0.3,2,0.6c0.6,0.4,1,0.9,1.4,1.5C25.6,9.1,25.8,9.8,26,10.5z M27.8,7.4
					C28,8,28.3,8.5,28.4,9.1c0.1,0.6,0.1,1.2-0.1,1.8c-0.1,0.3-0.2,0.5-0.5,0.7c-0.1,0.1-0.2,0.1-0.3,0.2c-0.1,0-0.2,0-0.3-0.1
					c-0.3-0.2-0.3-0.6-0.3-0.9c0-0.2,0-0.4,0-0.6c0-0.1,0-0.3-0.1-0.4c-0.1-0.5-0.3-1-0.5-1.5c-0.2-0.5-0.5-1-0.8-1.4
					c-0.3-0.4-0.7-0.8-1.2-1.1c-0.5-0.3-1-0.5-1.6-0.5c-0.7-0.1-1.5,0.1-2.3,0.3c-0.9,0.3-1.7,0.7-2.6,1.1C17.3,7,17,7.3,16.6,7.6
					C16.3,7.8,16,8,15.7,8.2c-0.3,0.2-0.6,0.5-0.9,0.7c-0.3,0.2-0.6,0.3-0.9,0.3c-0.5,0-0.5-0.4-0.4-0.7c0-0.1,0.1-0.3,0.2-0.4
					c0.2-0.3,0.4-0.5,0.7-0.8c0.3-0.3,0.7-0.6,1.1-0.9c0.8-0.6,1.7-1.1,2.6-1.6c0.8-0.4,1.7-0.7,2.5-0.9c0.8-0.2,1.7-0.3,2.5-0.2
					c0.8,0.1,1.5,0.4,2.1,0.7c0.6,0.4,1.2,0.8,1.6,1.4C27.2,6.4,27.5,6.9,27.8,7.4z"/>
				<path class="st6" d="M23.2,13.5c-0.1,0-0.3,0.1-0.4,0.1c0,0,0,0-0.1,0c0,0,0,0,0,0C22.9,13.5,23.1,13.5,23.2,13.5
					C23.3,13.5,23.2,13.5,23.2,13.5z"/>
				<path class="st7" d="M28.3,13.3c-0.3-0.2-0.6-0.3-1-0.4c-0.3-0.1-0.7-0.2-0.9-0.4c-0.1-0.1-0.2-0.2-0.3-0.4
					c0-0.1-0.1-0.2-0.1-0.3c0,0,0,0,0,0c0,0.3,0,0.7,0,1c0,0,0,0.1,0,0.1c-0.2,0-0.4,0-0.6,0.1c-0.7,0.1-1.4,0.2-2.1,0.4
					c0,0,0.1,0,0.1,0c0.1,0,0.3,0,0.4-0.1c0.4-0.1,0.8-0.1,1.2-0.1c0.4,0,0.8,0,1.1,0.1c0.4,0.1,0.7,0.2,1,0.3
					c0.3,0.2,0.5,0.4,0.7,0.6c0.1,0.1,0.1,0.3,0.2,0.5c0,0.2,0,0.4-0.1,0.5c-0.1,0.4-0.4,0.7-0.8,1c-0.3,0.2-0.7,0.3-1.1,0.3
					c-0.3,0-0.7-0.1-1-0.2c-0.2-0.1-0.5-0.1-0.8-0.1c0,0,0,0,0,0c0,0,0,0,0,0c0.2,0,0.5,0.1,0.7,0.2c0,0.1-0.1,0.2-0.1,0.2
					c0.1,0,0.3,0,0.4,0c0.3,0.1,0.5,0.2,0.8,0.3c0.1,0,0.2,0.1,0.3,0.1c0.2,0,0.4,0.1,0.6,0.1c0.2,0,0.4-0.1,0.6-0.2
					c0.2-0.1,0.4-0.3,0.5-0.5c0.2-0.2,0.3-0.4,0.4-0.6c0.1-0.2,0.2-0.4,0.3-0.6c0.1-0.4,0.1-0.8,0.1-1.1
					C28.8,13.9,28.6,13.5,28.3,13.3z"/>
				<path class="st7" d="M13.3,26.5c0.1-0.2,0.2-0.4,0.3-0.6c0.1-0.2,0.2-0.3,0.2-0.5c0.1-0.2,0.2-0.4,0.3-0.5
					c0.1-0.1,0.1-0.2,0.2-0.3c0,0,0,0,0.1,0c-0.1,0-0.3,0.1-0.4,0.1c0.2-0.4,0.5-0.9,0.7-1.3c0.2-0.4,0.5-0.8,0.8-1.3
					c0.5-0.8,1-1.5,1.4-2.3c0.4-0.8,0.8-1.5,0.9-2.3c0.7-0.2,1.4-0.4,2-0.5c0.1,0,0.3-0.1,0.4-0.1c-0.4,0-0.8,0-1.2,0.1
					c-0.5,0.1-0.9,0.2-1.4,0.3c-0.6,0.1-1.2,0.3-1.9,0.4c-0.6,0.1-1.1,0.3-1.7,0.5c0.2,0,0.3,0,0.5,0c0,0.1-0.1,0.2-0.1,0.3
					c0.1-0.1,0.3-0.2,0.4-0.2c0.3-0.1,0.6-0.1,0.9-0.1c0.3,0,0.5,0.1,0.6,0.3c0.1,0.2,0.2,0.4,0.1,0.6c0,0.3-0.2,0.5-0.3,0.8
					c-0.1,0.3-0.3,0.5-0.4,0.8c-0.4,0.7-0.8,1.3-1.2,2c-0.5,0.8-0.9,1.5-1.3,2.3c-0.2,0.4-0.4,0.9-0.6,1.3c-0.1,0.2-0.3,0.5-0.4,0.7
					c-0.1,0.2-0.3,0.4-0.5,0.5c-0.2,0.1-0.5,0.2-0.7,0.1c-0.3,0-0.5-0.2-0.6-0.4c-0.1-0.2-0.2-0.5-0.2-0.7c-0.1-0.3,0-0.6,0-0.9
					c0-0.2,0.1-0.4,0.2-0.6c-0.2,0-0.4,0-0.6-0.1c-0.5-0.1-1-0.2-1.5-0.4c-0.5-0.2-1-0.4-1.4-0.6c-0.9-0.5-1.6-1.2-2-2
					c-0.3-0.5-0.5-1.1-0.6-1.7c0,0.2,0,0.3,0,0.5c0,0.2,0,0.4,0.1,0.6c0.1,0.3,0.1,0.5,0.3,0.7c0.1,0.2,0.3,0.5,0.5,0.7
					c0.2,0.2,0.4,0.4,0.6,0.6c0.4,0.4,0.8,0.7,1.3,1c0.2,0.1,0.5,0.3,0.8,0.4c0.2,0.1,0.4,0.2,0.6,0.3c0.4,0.1,0.8,0.3,1.1,0.5
					c0.1,0.1,0.2,0.3,0.3,0.4c0,0.2-0.1,0.4-0.2,0.6c-0.1,0.2-0.3,0.4-0.6,0.5c-0.2,0.1-0.5,0.2-0.7,0.2c-0.2,0-0.4,0-0.6,0
					c0.5,0.1,1.1,0.2,1.7,0.3c0.3,0,0.7,0.1,1.1,0.1c0.1,0.2,0.3,0.3,0.6,0.3c0.4,0.1,0.9-0.1,1.3-0.4c0.3,0,0.5-0.1,0.8-0.1
					c0.1,0,0.1,0,0.2,0c0,0,0,0,0-0.1C13.1,26.9,13.2,26.7,13.3,26.5z"/>
				<path class="st7" d="M14.5,10.5c0.2,0.1,0.4,0.1,0.6,0.2c0.2,0.1,0.3,0.2,0.5,0.3c0.3,0.2,0.6,0.5,0.8,0.8
					c0.2,0.3,0.2,0.6,0.3,0.9c0,0.3-0.1,0.6-0.3,0.9c-0.3,0.3-0.7,0.5-1.1,0.5c-0.4,0-0.8-0.1-1.1-0.2c-0.3-0.2-0.6-0.4-0.9-0.6
					c-0.3-0.2-0.7-0.4-1.1-0.6c-0.7-0.3-1.6-0.4-2.6-0.2c-0.8,0.1-1.5,0.5-2.2,0.9c-0.7,0.4-1.3,1-1.8,1.6c-0.5,0.6-0.9,1.3-1.1,1.9
					c-0.1,0.2-0.1,0.5-0.2,0.7c0.1-0.3,0.2-0.7,0.4-1c0.5-1,1.2-1.9,2.2-2.6c1-0.7,2.1-1.1,3.2-1.1c0,0,0,0.1,0,0.1
					c-0.2,0.6-0.3,1.3-0.3,1.9c0.1-0.2,0.1-0.4,0.3-0.5c0.2-0.2,0.4-0.5,0.7-0.6c0.4-0.1,0.7-0.1,1,0.1c0.4,0.2,0.7,0.4,1.1,0.6
					c0.3,0.2,0.7,0.5,1.1,0.6c0.2,0.1,0.4,0.1,0.6,0.2c0.2,0,0.4,0.1,0.6,0.1c0.4,0,0.8,0,1.3,0c0.4-0.1,0.9-0.2,1.3-0.3
					c0.1,0,0.2-0.1,0.3-0.1c-0.1,0-0.2,0-0.3,0c0.1-0.1,0-0.2,0-0.3c0-0.1,0-0.2,0-0.3c0-0.4-0.1-0.7-0.3-1
					c-0.3-0.6-0.7-1.2-1.2-1.7c-0.4-0.4-1-0.7-1.6-0.9C15,9.9,15.4,9.3,16,8.9c0.3-0.3,0.7-0.6,1-0.8c-0.2,0.1-0.3,0.2-0.4,0.3
					c-0.5,0.3-1,0.8-1.5,1.1c-0.3,0.2-0.5,0.3-0.8,0.3c-0.3,0.1-0.6,0.1-0.9,0c-0.3,0-0.6-0.2-0.7-0.4c-0.1-0.2-0.1-0.4,0-0.7
					c0,0,0,0,0-0.1c-0.4,0.4-0.7,0.8-1,1.3c-0.1,0-0.2,0-0.3,0c0,0,0.1,0,0.1,0C12.5,10.1,13.2,10,14.5,10.5z"/>
			</g>
			<g>
				<path class="st0" d="M28.3,5.4c-0.7-0.7-1.3-1.3-2.2-1.7c-1.7-0.7-3.9-0.7-6.1,0c-1.1,0.4-2.3,0.9-3.3,1.6
					c-1,0.7-1.9,1.4-2.8,2.2C13,8.2,12.2,9.1,11.6,10c-1.6,0-3.4,0.6-5,1.4c-2.1,1.1-4,2.9-5,4.7C1,17.1,0.7,18,0.7,19
					c0,0.6,0,1.1,0.1,1.7c0.1,0.6,0.2,1.1,0.4,1.6c0.4,1,1.1,1.8,1.9,2.5c0.8,0.7,1.7,1.3,2.7,1.8c1,0.4,2.2,0.7,3.4,0.8
					c0.3,0,0.7,0.1,1.1,0.1c0.1,0.2,0.3,0.3,0.6,0.3c0.4,0.1,0.9-0.1,1.3-0.4c0.3,0,0.5-0.1,0.8-0.1c2.6-0.5,5.2-1.7,7.6-3.1
					c0.5-0.3,1-0.7,1.5-1c0.4-0.2,0.8-0.5,1.1-0.8c1.1-0.9,2.1-1.8,3.1-2.8c1.6-1.7,2.9-3.6,3.6-5.6c0.4-1,0.6-2,0.6-3
					c0-1.1-0.2-2.1-0.6-3C29.5,7,29,6.1,28.3,5.4z M10.2,27.2c-0.3,0-0.5,0-0.8,0c-1.2-0.1-2.3-0.4-3.3-0.8c-1-0.4-1.9-1-2.7-1.7
					c-0.8-0.7-1.5-1.5-1.9-2.5c-0.4-1-0.6-2.1-0.6-3.3c0-1.8,1.2-3.6,2.8-5.3c0.9-0.9,2.5-2,2.9-2.2c0.2-0.1,0.4-0.2,0.6-0.3
					c0.3-0.1,0.5-0.2,0.8-0.4c0.5-0.2,1-0.4,1.6-0.5c0.3-0.1,0.5-0.1,0.8-0.2c0.2,0,0.5-0.1,0.7-0.1c0.1,0,0.1,0,0.2,0c0,0,0,0,0,0
					c0.3,0,0.5,0,0.8,0c0.3,0,0.5,0,0.8,0c0.4,0,0.7,0.1,1.1,0.2c0.3,0.1,0.6,0.2,0.9,0.3c0.3,0.1,0.6,0.3,0.9,0.5
					c0.3,0.2,0.5,0.4,0.7,0.6c0.2,0.2,0.4,0.4,0.5,0.6c0.1,0.2,0.3,0.5,0.4,0.7c0.1,0.2,0.1,0.4,0.1,0.5c0,0.1,0.1,0.3,0.1,0.4
					c0,0.1,0,0.3,0.1,0.4c0,0.1,0,0.1,0,0.2c0,0,0,0.1,0,0.1c0,0,0,0,0,0c-0.7,0.1-1.3,0.1-1.9,0.1c-0.6,0-1.2-0.1-1.7-0.3
					c-0.4-0.2-0.6-0.4-0.7-0.8c0.1,0.1,0.2,0.2,0.3,0.4c0-0.1,0-0.2-0.1-0.3c-0.2-0.2-0.3-0.4-0.6-0.6c-0.6-0.4-1.4-0.6-2.2-0.6
					c-0.6,0-1.3,0-1.9,0.1c-0.1,0-0.2,0.1-0.3,0.1c-2.4,0.7-4.1,3.1-4.5,5c-0.2,1-0.2,1.9,0.1,2.8c0.1,0.2,0.1,0.4,0.2,0.6
					c0,0,0,0.1,0.1,0.1c0.3,0.5,0.6,1,1,1.5c0.4,0.4,0.9,0.8,1.4,1.1c0.5,0.3,1.1,0.5,1.7,0.7c0.3,0.1,0.6,0.2,0.9,0.3
					C9.7,25,10,25,10.3,25.1c0,0,0,0,0,0c0,0,0,0,0,0C10.1,25.6,10,26,10,26.5C10,26.7,10,27,10.2,27.2z M24.5,16.2
					c-0.3,0-0.6-0.1-0.9-0.1c-0.6,0-1.3,0.1-2,0.2c-0.7,0.1-1.5,0.3-2.2,0.5c-0.7,0.2-1.3,0.3-2,0.5c-0.2,0.1-0.4,0.1-0.7,0.2
					c-1,0.2-1.9,0.4-2.9,0.4c-0.5,0-0.9,0-1.3-0.1c-0.4-0.1-0.8-0.3-1.1-0.5c-0.7-0.4-1.1-1.1-1.3-1.8c-0.1-0.2-0.1-0.5-0.1-0.7
					c-0.1-0.7,0-1.4,0.3-2.1c0.9,0,1.8,0.2,2.4,0.6c0.1,0.1,0.2,0.1,0.3,0.2c0,0.1,0.1,0.3,0.1,0.4c0.1,0.1,0.2,0.3,0.3,0.4
					c0.2,0.2,0.4,0.3,0.7,0.4c0.2,0.1,0.5,0.2,0.8,0.2c0.3,0,0.6,0.1,0.9,0.1c0.5,0,1.1,0,1.6-0.1c0.1,0,0.2-0.1,0.3-0.1
					c0.2,0,0.3,0,0.5,0c0,0,0,0,0,0c0.2,0,0.3-0.1,0.5-0.1c0.3,0,0.6-0.1,0.9-0.2c0.2-0.1,0.5-0.1,0.7-0.2c0,0,0.1,0,0.1,0
					c0.3-0.1,0.7-0.2,1-0.2c0.2,0,0.3-0.1,0.5-0.1c0.2,0,0.4-0.1,0.6-0.1c0.7-0.2,1.5-0.3,2.2-0.5c0.6-0.1,1.3-0.2,1.9-0.2
					c0.3,0,0.6,0,0.9,0.1c0.2,0,0.4,0.1,0.6,0.2c0.2,0.1,0.4,0.2,0.5,0.4c0.1,0.1,0.1,0.3,0.2,0.4c0,0.1,0.1,0.3,0.1,0.4
					c0,0.7-0.4,2.1-1.5,2.1c0,0,0,0,0,0c-0.2,0-0.3,0.1-0.5,0c-0.1,0-0.2-0.1-0.3-0.1c-0.1,0-0.2-0.1-0.3-0.1
					c-0.2-0.1-0.5-0.2-0.7-0.2C25,16.3,24.8,16.2,24.5,16.2z M25.1,16.5c-0.2,0.4-0.4,0.8-0.7,1.2c-0.6,0.9-1.2,1.8-2,2.6
					c-0.8,0.7-1.8,1.5-2.8,2c-1.8,1.1-3.7,1.9-5.7,2.4c0.2-0.4,0.5-0.9,0.7-1.3c0.2-0.4,0.5-0.8,0.8-1.3c0.5-0.8,1-1.5,1.4-2.3
					c0.4-0.8,0.8-1.5,0.9-2.3c0.7-0.2,1.4-0.4,2-0.5c1.4-0.3,2.8-0.6,4.1-0.6C24.3,16.3,24.7,16.4,25.1,16.5z M12.4,17.9
					c0.7,0.2,1.4,0.2,2.2,0.1c0,0.1-0.1,0.2-0.1,0.3c-0.2,0.4-0.4,0.8-0.6,1.1c-0.5,0.9-1.1,1.8-1.7,2.7c-0.5,0.8-1.1,1.5-1.5,2.3
					c-0.1,0.2-0.2,0.3-0.3,0.5c-0.2,0-0.4,0-0.7-0.1c-0.5-0.1-1-0.2-1.5-0.4c-0.5-0.2-1-0.4-1.4-0.6c-0.9-0.5-1.6-1.2-2-2
					c-0.4-0.7-0.7-1.6-0.7-2.5c-0.1-0.9,0.1-1.8,0.6-2.8c0.5-1,1.2-1.9,2.2-2.6c1-0.7,2.1-1.1,3.2-1.1c0,0,0,0.1,0,0.1
					c-0.3,1.1-0.4,2.2,0,3.1C10.4,16.9,11.3,17.6,12.4,17.9z M26.1,13c-0.2,0-0.4,0-0.6,0.1c-0.7,0.1-1.5,0.2-2.3,0.4
					c0,0,0.1,0,0.1,0c-0.2,0-0.4,0.1-0.5,0.1c0,0,0,0,0,0c0,0,0,0,0.1,0c-1.7,0.4-3.4,0.9-5.1,1.2c0.1-0.1,0-0.2,0-0.3
					c0-0.1,0-0.2,0-0.3c0-0.4-0.1-0.7-0.3-1c-0.3-0.6-0.7-1.2-1.2-1.7c-0.4-0.4-1-0.7-1.6-0.9C15,9.9,15.4,9.3,16,8.9
					c0.9-0.8,2-1.5,3.1-1.9c0.9-0.4,1.8-0.6,2.7-0.5c0.8,0,1.4,0.3,2,0.6c0.6,0.4,1,0.9,1.4,1.5c0.4,0.6,0.6,1.3,0.8,2
					c0.2,0.7,0.2,1.5,0.1,2.3C26.1,12.9,26.1,13,26.1,13z M11.5,27.6c-1.1,0.3-1.4-0.7-1.4-1.4c0-0.3,0.1-0.6,0.2-0.9
					c0.1-0.2,0.2-0.4,0.3-0.6c0.4-0.7,0.9-1.4,1.3-2.1c0.6-0.9,1.2-1.8,1.7-2.7c0.4-0.6,0.7-1.2,1-1.9c0.4,0,0.8-0.1,1.1-0.2
					c0.6-0.1,1.2-0.3,1.7-0.4c-0.1,0.6-0.4,1.2-0.6,1.7c-0.4,0.8-0.8,1.5-1.3,2.3c-0.2,0.4-0.5,0.8-0.7,1.1
					c-0.3,0.4-0.5,0.9-0.7,1.3c-0.3,0.7-0.6,1.3-1,2C12.9,26.5,12.3,27.4,11.5,27.6z M30.3,11c0,1-0.3,2.1-0.7,3.2
					c-0.1,0.5-0.3,0.9-0.6,1.3c-0.4,0.7-0.8,1.3-1.3,2c-0.5,0.6-1,1.3-1.6,1.9c-0.6,0.6-1.2,1.2-1.9,1.8c-0.5,0.4-1,0.9-1.5,1.2
					c0,0,0,0,0,0C21,23.8,19,25,17,25.8c-1.3,0.5-2.6,1-3.8,1.2c-0.2,0-0.4,0.1-0.7,0.1c0,0,0.1-0.1,0.1-0.1c0.3-0.3,0.5-0.7,0.7-1
					c0.2-0.4,0.4-0.8,0.6-1.2c1.4-0.3,2.8-0.9,4.1-1.5c1.2-0.6,2.3-1.2,3.4-2c0.4-0.3,0.8-0.7,1.2-1c0.4-0.4,0.7-0.8,1.1-1.2
					c0.3-0.4,0.6-0.8,0.9-1.3c0.1-0.2,0.3-0.4,0.4-0.6c0.1-0.2,0.2-0.4,0.3-0.6c0,0,0,0,0,0c0.1,0,0.2,0,0.3,0.1
					c0.3,0.1,0.5,0.2,0.8,0.2c0.3,0.1,0.5,0.1,0.8,0.1c1.1-0.2,1.6-1.4,1.7-2.1c0.1-0.8-0.3-1.4-1-1.6c-0.2-0.1-0.4-0.1-0.6-0.2
					c0,0,0,0,0,0c0,0,0,0,0,0c-0.1,0-0.2,0-0.3,0c0,0,0,0,0,0c-0.1,0-0.2,0-0.4,0c0,0,0,0,0,0c-0.1,0-0.2,0-0.3,0
					c0.1-0.7,0.1-1.4,0-2c-0.1-0.8-0.3-1.5-0.6-2.2c-0.3-0.6-0.6-1.1-1.2-1.6c-0.5-0.4-1.2-0.8-1.9-0.9c-1.5-0.3-3.4,0.3-4.9,1.2
					C17,7.9,16.5,8.3,16,8.7c-0.6,0.5-1.1,1.1-1.4,1.7c0,0,0,0,0,0c0,0-0.1,0-0.1,0c0,0-0.1,0-0.1,0c-0.7-0.2-1.4-0.3-2.2-0.3
					c-0.1,0-0.2,0-0.3,0c1.3-1.7,3.1-3.3,5-4.6c1.9-1.3,4.2-2.1,6.2-2.1c0.2,0,0.5,0,0.7,0c0,0,0,0,0.1,0c0,0,0,0,0.1,0
					c0.5,0,0.9,0.1,1.3,0.2c0.4,0.1,0.8,0.3,1.1,0.5c0,0,0,0,0,0c0.8,0.4,1.4,1,1.9,1.5C29.5,7,30.3,8.9,30.3,11z"/>
				<path class="st0" d="M22.8,13.6c0.1,0,0.3-0.1,0.4-0.1C23.1,13.5,22.9,13.5,22.8,13.6z"/>
				<polygon class="st0" points="23.2,13.5 23.2,13.5 23.2,13.5 				"/>
			</g>
			<path class="st8" d="M6.6,11.9c-2.2,1.1-4,3-4.8,4.9c-0.9,2.1-0.6,4.2,0.2,5.8c0.5,1.1,1.6,1.7,2.5,2.5c0.1,0.1,0.2-0.1,0.2-0.2
				c-0.6-0.8-1.4-1.4-1.9-2.2C2.2,21.9,1.9,21,1.8,20c-0.1-0.9-0.1-1.8,0.2-2.8c0.3-0.9,0.9-1.8,1.6-2.7c0.8-1,1.9-1.8,3-2.6
				C6.7,12,6.7,11.9,6.6,11.9z"/>
			<path class="st8" d="M5.4,25.3c0,0-0.1,0-0.1,0c-0.1,0-0.1,0.1-0.2,0.1c0,0-0.1,0.1,0,0.2c0,0,0,0,0.1,0c0,0,0,0,0,0c0,0,0,0,0,0
				c0,0,0,0,0,0c0,0,0,0,0,0c0,0,0,0,0,0c0,0,0,0,0,0c0.1,0.1,0.3-0.1,0.2-0.2C5.4,25.4,5.4,25.4,5.4,25.3z"/>
			<path class="st8" d="M14.7,18.7c-0.1,0.2-0.3,0.5-0.4,0.7c-0.2,0.3-0.4,0.6-0.6,0.9c-0.4,0.6-0.8,1.2-1.3,1.9
				c-0.3,0.5-0.7,1.1-1.1,1.6c-0.3,0.5-0.7,1-0.6,1.5c0,0.1,0.1,0,0.2,0c0.2-0.3,0.3-0.5,0.4-0.8c0.2-0.3,0.3-0.6,0.5-0.8
				c0.4-0.6,0.8-1.2,1.2-1.7c0.4-0.6,0.8-1.2,1.2-1.9c0.1-0.3,0.3-0.5,0.4-0.8c0.1-0.2,0.2-0.4,0.1-0.6
				C14.8,18.6,14.7,18.7,14.7,18.7z"/>
			<path class="st8" d="M10.6,25.9C10.6,25.9,10.6,25.9,10.6,25.9c0,0.1,0.1,0,0.1,0c0,0,0,0,0,0C10.9,25.6,10.5,25.7,10.6,25.9z"/>
			<path class="st8" d="M22.5,21.6c-0.3,0.1-0.5,0.3-0.7,0.5c-0.3,0.2-0.6,0.4-0.9,0.6c-0.6,0.4-1.2,0.8-1.9,1.1
				c-0.6,0.3-1.3,0.7-1.9,0.9c-0.5,0.2-1.1,0.4-1.6,0.5c-0.1,0-0.1,0.1-0.1,0.1c0.2,0.3,0.9,0.1,1.3-0.1c0.7-0.2,1.4-0.6,2.1-0.9
				c0.7-0.4,1.3-0.8,2-1.2c0.6-0.4,1.4-0.8,1.8-1.4C22.6,21.8,22.6,21.6,22.5,21.6z"/>
			<path class="st8" d="M23.3,21.1c0,0-0.1,0-0.1,0c-0.1,0-0.1,0.1-0.1,0.2c0,0,0,0,0,0c0,0,0,0,0,0c0,0,0,0,0.1,0c0,0,0,0,0,0
				c0,0,0,0,0.1,0C23.3,21.3,23.3,21.2,23.3,21.1C23.3,21.1,23.3,21.1,23.3,21.1z"/>
			<path class="st8" d="M24.7,15.4c-0.8-0.2-1.8-0.1-2.8,0c-1,0.1-1.9,0.3-2.9,0.5c-1.7,0.4-3.5,1.1-5.3,1.2c-0.9,0.1-1.8,0-2.3-0.5
				c0,0-0.1,0.1-0.1,0.1c0.8,1,2.5,0.8,4,0.5c2-0.4,3.9-1.1,5.9-1.5c0.6-0.1,1.1-0.1,1.7-0.2c0.6,0,1.1,0,1.7-0.1
				C24.7,15.5,24.8,15.4,24.7,15.4z"/>
			<path class="st8" d="M26,5.3c-0.5-0.4-1.1-0.8-1.8-1c-0.6-0.2-1.3-0.3-2-0.3c-0.7,0-1.4,0.1-2.2,0.5c-0.1,0-0.1,0.1,0,0.1
				c1.4-0.3,2.9-0.2,4,0.2c0.6,0.2,1.2,0.6,1.7,0.9c0.5,0.4,1,0.8,1.4,1.3c0,0,0.1,0,0.1-0.1C27,6.3,26.5,5.8,26,5.3z"/>
			<path class="st8" d="M27.7,7.7C27.7,7.6,27.7,7.6,27.7,7.7C27.7,7.6,27.6,7.6,27.7,7.7c-0.1-0.1-0.1,0-0.2,0c0,0-0.1,0-0.1,0.1
				c0,0,0,0.1,0,0.1c0,0,0,0,0,0c0,0,0,0,0,0c0,0,0,0,0,0c0,0,0,0,0,0c0,0,0,0,0,0c0,0,0,0,0,0.1c0,0,0,0,0.1,0c0,0,0,0,0,0
				c0,0,0,0,0,0c0,0,0,0,0,0c0,0,0,0,0,0c0,0,0-0.1,0.1-0.1C27.7,7.8,27.7,7.8,27.7,7.7C27.7,7.7,27.7,7.7,27.7,7.7z"/>
		</g>
		<g>
			<path class="st9" d="M2.4,17.6c-0.1,0-0.2,0-0.2,0.1c-0.1,0-0.1,0.1-0.1,0.1c0,0,0,0.1,0.1,0.1c0,0,0.1,0,0.1,0c0,0,0.1,0,0.1,0
				c0,0,0,0,0.1-0.1c0,0,0,0,0-0.1C2.5,17.7,2.5,17.7,2.4,17.6C2.5,17.6,2.5,17.6,2.4,17.6C2.5,17.6,2.5,17.6,2.4,17.6z"/>
			<path class="st9" d="M2.5,18.6C2.5,18.6,2.4,18.6,2.5,18.6C2.4,18.6,2.4,18.6,2.5,18.6c-0.1,0-0.1,0-0.1,0c0,0,0,0,0,0.1
				c0,0,0,0,0,0c0,0,0,0,0,0c0,0-0.1,0.1-0.1,0.1c0,0,0,0.1,0,0.1c0,0,0,0,0,0c0,0,0,0,0,0c0,0,0,0,0.1,0c0,0,0,0,0,0c0,0,0,0,0,0
				c0,0,0,0,0,0c0,0,0,0,0,0c0,0,0,0,0,0c0,0,0,0,0,0C2.5,18.7,2.5,18.7,2.5,18.6C2.5,18.7,2.5,18.7,2.5,18.6
				C2.5,18.6,2.5,18.6,2.5,18.6C2.5,18.6,2.5,18.6,2.5,18.6z"/>
			<path class="st9" d="M3,18c0,0-0.1,0-0.1,0c0,0,0,0,0,0c0,0,0,0,0,0c0,0,0,0.1-0.1,0.1c0,0,0,0,0,0c0,0,0,0,0,0c0,0,0,0,0,0
				c0,0,0,0,0,0.1c0,0,0,0,0,0c0,0,0,0,0,0c0,0,0,0,0,0c0,0,0,0,0,0c0,0,0,0,0.1,0C3,18.1,3,18.1,3,18C3,18,3,18,3,18
				C3,18,3,18,3,18z"/>
			<path class="st9" d="M3.2,18.3c-0.1,0-0.1,0.2,0,0.1C3.3,18.4,3.4,18.3,3.2,18.3z"/>
			<path class="st9" d="M3.6,16.5C3.6,16.5,3.6,16.5,3.6,16.5c-0.1,0-0.1,0-0.1,0c0,0-0.1,0-0.1,0.1c0,0,0,0,0,0.1c0,0,0,0,0,0.1
				c0,0,0,0,0,0.1c0,0,0,0,0,0c0,0,0,0,0,0c0,0,0,0,0,0c0,0,0,0,0,0c0,0,0,0,0,0c0,0,0,0,0,0c0,0,0,0,0,0c0,0,0,0,0,0c0,0,0,0,0,0
				c0,0,0,0,0,0c0,0,0,0,0,0c0,0,0,0,0,0C3.6,16.6,3.7,16.6,3.6,16.5C3.7,16.6,3.7,16.6,3.6,16.5C3.7,16.6,3.7,16.5,3.6,16.5
				C3.7,16.5,3.7,16.5,3.6,16.5z"/>
			<path class="st9" d="M2.4,19.7C2.4,19.7,2.4,19.7,2.4,19.7C2.4,19.7,2.4,19.7,2.4,19.7C2.4,19.7,2.4,19.7,2.4,19.7
				C2.4,19.7,2.4,19.7,2.4,19.7C2.4,19.7,2.4,19.7,2.4,19.7c-0.1,0-0.1,0-0.1,0c0,0,0,0,0,0c0,0,0,0,0,0.1c0,0,0,0,0,0c0,0,0,0,0,0
				c0,0,0,0,0,0c0,0,0,0,0,0c0,0,0,0,0,0c0,0,0,0,0,0c0,0,0,0,0,0c0,0,0,0,0,0c0,0,0,0,0,0C2.4,19.8,2.4,19.8,2.4,19.7
				C2.5,19.8,2.5,19.8,2.4,19.7C2.4,19.8,2.4,19.8,2.4,19.7z"/>
			<path class="st9" d="M3.3,20C3.3,20,3.3,20,3.3,20C3.3,19.9,3.3,19.9,3.3,20C3.3,19.9,3.3,19.9,3.3,20C3.2,19.9,3.2,19.9,3.3,20
				c-0.1,0-0.1,0-0.1,0c0,0,0,0,0,0c0,0,0,0,0,0c0,0,0,0,0,0c0,0,0,0,0,0c0,0,0,0,0,0c0,0,0,0,0,0c0,0,0,0,0,0c0,0,0,0,0,0
				c0,0,0,0,0,0c0,0,0,0,0,0c0,0,0,0,0,0C3.3,20.1,3.3,20.1,3.3,20C3.3,20,3.3,20,3.3,20C3.3,20,3.3,20,3.3,20C3.3,20,3.3,20,3.3,20
				C3.3,20,3.3,20,3.3,20L3.3,20z"/>
			<g>
				<path class="st9" d="M2.6,21C2.6,21,2.5,21,2.6,21C2.5,21,2.5,21,2.6,21c-0.1,0-0.2,0-0.2,0.1c0,0,0,0,0,0c0,0,0,0,0,0
					c0,0,0,0,0,0c0,0,0,0,0,0c0,0,0,0,0,0c0,0-0.1,0.1-0.1,0.1c0,0,0,0,0,0c0,0,0,0,0,0c0,0,0,0,0.1,0c0,0,0,0,0,0c0,0,0,0,0,0
					c0.1,0,0.1,0,0.2-0.1c0,0,0.1-0.1,0.1-0.1c0,0,0,0,0,0C2.6,21.1,2.6,21.1,2.6,21C2.6,21.1,2.6,21,2.6,21z"/>
				<path class="st9" d="M2.3,21.1C2.4,21.1,2.4,21.1,2.3,21.1C2.4,21.1,2.4,21.1,2.3,21.1C2.4,21.1,2.4,21.1,2.3,21.1z"/>
			</g>
			<path class="st9" d="M2.8,20.5C2.8,20.5,2.8,20.5,2.8,20.5C2.8,20.5,2.8,20.5,2.8,20.5C2.8,20.5,2.8,20.5,2.8,20.5
				C2.8,20.5,2.7,20.5,2.8,20.5C2.7,20.5,2.7,20.5,2.8,20.5C2.7,20.5,2.7,20.5,2.8,20.5C2.7,20.5,2.7,20.5,2.8,20.5
				C2.7,20.5,2.7,20.5,2.8,20.5c-0.1,0-0.1,0-0.1,0c0,0,0,0,0,0c0,0,0,0,0,0c0,0,0,0,0,0c0,0,0,0,0,0c0,0,0,0,0,0c0,0,0,0,0,0
				c0,0,0,0,0,0c0,0,0,0,0,0c0,0,0,0,0,0c0,0,0,0,0,0c0,0,0,0,0,0c0,0,0,0,0,0c0,0,0,0,0,0c0,0,0,0,0,0c0,0,0,0,0,0c0,0,0,0,0,0
				c0,0,0,0,0,0c0,0,0,0,0,0c0,0,0,0,0,0c0,0,0,0,0,0l0,0c0,0,0,0,0,0c0,0,0,0,0,0C2.8,20.6,2.8,20.6,2.8,20.5c0,0.1,0,0.1,0,0.1
				C2.8,20.6,2.8,20.6,2.8,20.5C2.8,20.6,2.8,20.6,2.8,20.5C2.8,20.5,2.8,20.5,2.8,20.5C2.8,20.5,2.8,20.5,2.8,20.5
				C2.8,20.5,2.8,20.5,2.8,20.5z"/>
			<path class="st9" d="M3.7,18.9C3.7,18.9,3.7,18.9,3.7,18.9C3.7,18.9,3.7,18.9,3.7,18.9C3.7,18.9,3.7,18.9,3.7,18.9
				C3.6,18.9,3.6,18.9,3.7,18.9c-0.1,0-0.1,0-0.1,0c0,0,0,0,0,0c0,0,0,0,0,0c0,0,0,0,0,0c0,0,0,0,0,0c0,0,0,0,0,0c0,0,0,0,0,0
				c0,0,0,0,0,0c0,0,0,0,0,0c0,0,0,0,0,0c0,0,0,0,0,0c0,0,0,0,0,0c0,0,0,0,0,0c0,0,0,0,0,0c0,0,0,0,0,0c0,0,0,0,0,0c0,0,0,0,0,0
				c0,0,0,0,0,0c0,0,0,0,0,0c0,0,0,0,0,0c0,0,0,0,0,0c0,0,0,0,0,0c0,0,0,0,0,0c0,0,0,0,0,0c0,0,0,0,0,0c0,0,0,0,0,0h0c0,0,0,0,0,0
				c0,0,0,0,0,0c0,0,0,0,0,0c0,0,0,0,0,0c0,0,0,0,0,0C3.7,19,3.7,19,3.7,18.9C3.7,19,3.7,18.9,3.7,18.9C3.7,18.9,3.7,18.9,3.7,18.9
				C3.7,18.9,3.7,18.9,3.7,18.9C3.7,18.9,3.7,18.9,3.7,18.9z"/>
			<path class="st9" d="M2.8,16.2C2.7,16.2,2.7,16.2,2.8,16.2c-0.1,0-0.1,0-0.1,0c0,0-0.1,0-0.1,0c0,0-0.1,0-0.1,0
				c0,0-0.1,0.1-0.1,0.1c0,0,0,0,0,0.1c0,0,0,0,0,0c0,0,0.1,0,0.1,0.1c0,0,0.1,0,0.1,0c0,0,0,0,0,0c0,0,0,0,0,0c0,0,0,0,0,0
				c0,0,0.1,0,0.1-0.1c0.1-0.1,0.1-0.1,0.1-0.2C2.8,16.3,2.8,16.2,2.8,16.2z"/>
			<path class="st9" d="M3.4,15.7c-0.1,0-0.1,0.2,0,0.1C3.5,15.8,3.5,15.7,3.4,15.7z"/>
			<path class="st9" d="M4.1,16c-0.1,0-0.1,0.2,0,0.1C4.2,16.1,4.2,15.9,4.1,16z"/>
			<path class="st9" d="M4.3,17.2C4.3,17.2,4.3,17.2,4.3,17.2C4.2,17.2,4.2,17.2,4.3,17.2c-0.1,0-0.1,0-0.1,0c0,0,0,0,0,0
				c0,0-0.1,0-0.1,0c0,0-0.1,0.1-0.1,0.1c0,0,0,0,0,0c0,0,0,0,0,0c0,0,0,0,0,0c0,0,0,0,0,0c0,0,0,0,0,0c0,0,0,0,0,0c0,0,0,0,0,0
				c0,0,0,0,0,0c0,0,0,0,0,0c0,0,0.1,0,0.1-0.1c0,0,0,0,0.1-0.1C4.3,17.4,4.3,17.3,4.3,17.2C4.3,17.3,4.3,17.3,4.3,17.2
				C4.3,17.3,4.3,17.2,4.3,17.2z"/>
			<path class="st9" d="M5,14.7c-0.1,0-0.1,0.1-0.1,0.2c0,0,0.1,0.1,0.1,0c0.1,0,0.1-0.1,0.1-0.2C5.1,14.7,5.1,14.7,5,14.7z"/>
			<path class="st9" d="M5.6,15C5.6,15,5.5,15,5.6,15c-0.1,0-0.1,0-0.2,0c0,0,0,0-0.1,0.1c0,0,0,0,0,0c0,0,0,0,0,0c0,0,0,0,0,0.1
				c0,0,0,0,0,0c0,0,0,0,0,0c0,0,0,0,0,0c0,0,0,0,0,0c0,0,0,0,0,0c0,0,0,0,0,0c0,0,0,0,0,0c0,0,0,0,0,0l0,0c0,0,0,0,0,0c0,0,0,0,0,0
				C5.6,15.2,5.6,15.1,5.6,15C5.6,15.1,5.6,15.1,5.6,15C5.6,15.1,5.6,15.1,5.6,15C5.6,15.1,5.6,15.1,5.6,15z"/>
			<path class="st9" d="M4.4,14.4C4.4,14.4,4.4,14.4,4.4,14.4C4.4,14.4,4.4,14.4,4.4,14.4L4.4,14.4C4.4,14.4,4.4,14.4,4.4,14.4
				C4.3,14.4,4.3,14.4,4.4,14.4C4.3,14.4,4.3,14.4,4.4,14.4C4.3,14.4,4.3,14.4,4.4,14.4c-0.1,0-0.1,0-0.1,0c0,0,0,0,0,0c0,0,0,0,0,0
				c0,0,0,0,0,0c0,0,0,0,0,0c0,0,0,0,0,0c0,0,0,0,0,0c0,0,0,0,0,0c0,0,0,0,0,0c0,0,0,0,0.1,0c0,0,0,0,0,0c0,0,0,0,0,0c0,0,0,0,0,0
				c0,0,0,0,0,0c0,0,0,0,0,0C4.4,14.5,4.4,14.5,4.4,14.4C4.4,14.5,4.4,14.5,4.4,14.4C4.4,14.5,4.4,14.5,4.4,14.4
				C4.4,14.5,4.4,14.5,4.4,14.4C4.4,14.5,4.4,14.5,4.4,14.4C4.4,14.4,4.4,14.4,4.4,14.4z"/>
			<g>
				<path class="st9" d="M6,13.8C6,13.8,5.9,13.8,6,13.8C5.9,13.8,5.9,13.8,6,13.8C5.9,13.8,5.9,13.8,6,13.8
					C5.9,13.8,5.9,13.8,6,13.8C5.9,13.8,5.9,13.8,6,13.8c-0.1,0-0.1,0-0.1,0c0,0,0,0,0,0c0,0,0,0,0,0c0,0,0,0,0,0c0,0,0,0,0,0
					c0,0,0,0,0,0c0,0,0,0,0,0c0,0,0,0,0,0c0,0,0,0,0,0c0,0,0,0,0,0c0,0,0,0,0,0c0,0,0,0,0,0c0,0,0,0,0,0c0,0,0,0,0,0c0,0,0,0,0,0
					c0,0,0,0,0,0c0,0,0,0,0,0c0,0,0,0,0,0c0,0,0,0,0,0c0,0,0,0,0,0c0,0,0,0,0,0c0,0,0,0,0,0c0,0,0,0,0,0c0,0,0,0,0,0c0,0,0,0,0.1,0
					c0,0,0,0,0-0.1C5.9,13.9,5.9,13.9,6,13.8C6,13.9,6,13.8,6,13.8C6,13.8,6,13.8,6,13.8C6,13.8,6,13.8,6,13.8C6,13.8,6,13.8,6,13.8
					C6,13.8,6,13.8,6,13.8C6,13.8,6,13.8,6,13.8C6,13.8,6,13.8,6,13.8C6,13.8,6,13.8,6,13.8C6,13.8,6,13.8,6,13.8z"/>
				<polygon class="st9" points="5.7,14 5.8,14 5.8,14 5.7,14 				"/>
				<polygon class="st9" points="5.8,14 5.8,14 5.7,14 				"/>
			</g>
			<path class="st9" d="M6.5,26.2c0,0.1-0.1,0.1-0.1,0.2c0,0,0,0.1,0.1,0.1c0.1,0,0.1,0,0.1-0.1c0,0,0.1-0.1,0.1-0.1c0,0,0,0,0-0.1
				c0,0,0,0,0,0c0,0,0,0,0,0c0,0-0.1,0-0.1,0C6.6,26.2,6.6,26.2,6.5,26.2C6.5,26.2,6.5,26.2,6.5,26.2z"/>
			<path class="st9" d="M7.2,25.7c0,0-0.1,0.1-0.1,0.1c0,0,0,0,0,0c0,0,0,0,0,0c0,0,0,0,0.1,0c0,0,0,0,0,0c0,0,0,0,0,0
				c0,0,0,0,0.1,0c0,0,0.1,0,0.1,0c0,0,0,0,0,0c0,0,0,0,0,0c0,0,0,0,0,0c0,0,0,0,0,0c0,0,0,0,0,0C7.4,25.7,7.4,25.7,7.2,25.7
				C7.3,25.7,7.3,25.7,7.2,25.7C7.3,25.7,7.3,25.7,7.2,25.7z"/>
			<path class="st9" d="M7.8,25.5c0,0.1,0.2,0.1,0.2,0C7.9,25.4,7.8,25.4,7.8,25.5z"/>
			<path class="st9" d="M5.8,25.2C5.8,25.2,5.8,25.3,5.8,25.2c-0.1,0.1-0.1,0.1-0.1,0.1c0,0,0,0.1,0,0.1c0,0,0,0,0.1,0
				c0,0,0,0,0.1,0c0,0,0,0,0.1,0c0,0,0,0,0,0c0,0,0,0,0,0c0,0,0,0,0,0c0,0,0,0,0.1,0c0,0,0,0,0,0c0,0,0,0,0,0c0,0,0,0,0,0
				c0,0,0,0,0,0c0,0,0,0,0,0c0,0,0,0,0,0c0,0,0,0,0,0c0,0,0,0,0,0c0,0,0,0-0.1,0c0,0,0,0,0,0C5.9,25.2,5.9,25.2,5.8,25.2
				C5.9,25.2,5.8,25.2,5.8,25.2z"/>
			<path class="st9" d="M8.7,25.1C8.7,25.1,8.7,25.1,8.7,25.1C8.7,25.1,8.7,25.1,8.7,25.1C8.7,25.1,8.6,25.1,8.7,25.1
				C8.6,25.1,8.6,25.1,8.7,25.1c-0.1,0.1-0.1,0.1-0.1,0.1c0,0,0,0,0,0c0,0,0,0,0,0c0,0,0,0,0,0c0,0,0,0,0,0c0,0,0,0,0,0c0,0,0,0,0,0
				c0,0,0,0,0,0c0,0,0,0,0,0c0,0,0,0,0,0c0,0,0,0,0,0c0,0,0,0,0,0c0,0,0,0,0,0c0,0,0,0,0,0c0,0,0,0,0,0c0,0,0,0,0,0c0,0,0,0,0,0
				c0,0,0,0,0,0c0,0,0,0,0,0c0,0,0,0,0,0c0,0,0,0,0,0c0,0,0,0,0,0c0,0,0,0,0,0c0,0,0,0,0,0c0,0,0,0,0,0c0,0,0,0,0,0v0c0,0,0,0,0,0
				c0,0,0,0,0,0c0,0,0,0,0,0c0,0,0,0,0,0c0,0,0,0,0,0c0,0,0,0,0,0C8.8,25,8.8,25,8.7,25.1C8.8,25,8.8,25,8.7,25.1
				C8.7,25,8.7,25,8.7,25.1C8.7,25,8.7,25,8.7,25.1z"/>
			<path class="st9" d="M4.1,25.3C4.1,25.3,4.1,25.3,4.1,25.3C4.1,25.3,4.1,25.4,4.1,25.3C4.1,25.4,4,25.4,4,25.5c0,0,0,0.1,0,0.1
				c0,0,0,0.1,0.1,0.1c0,0,0,0,0.1,0c0,0,0,0,0.1,0c0,0,0.1-0.1,0.1-0.1c0,0,0.1-0.1,0.1-0.1c0,0,0,0,0,0c0,0,0,0,0,0c0,0,0,0,0,0
				c0,0,0,0,0-0.1c0,0-0.1-0.1-0.2-0.1C4.2,25.2,4.2,25.2,4.1,25.3z"/>
			<path class="st9" d="M4.8,25.5c0,0.1,0.2,0.1,0.1,0C4.9,25.4,4.8,25.4,4.8,25.5z"/>
			<path class="st9" d="M5.5,24.8c0,0.1,0.2,0.1,0.2,0C5.7,24.7,5.5,24.7,5.5,24.8z"/>
			<path class="st9" d="M7,24.6C7,24.6,7,24.7,7,24.6C7,24.7,7,24.7,7,24.6C7,24.7,7,24.7,7,24.8c0,0,0,0,0,0c0,0,0,0,0,0.1
				c0,0,0,0.1,0.1,0.1c0,0,0,0,0,0c0,0,0,0,0,0c0,0,0,0,0,0c0,0,0,0,0,0c0,0,0,0,0,0c0,0,0,0,0,0c0,0,0,0,0,0c0,0,0,0,0,0
				c0,0,0,0,0,0c0,0,0-0.1,0-0.1c0,0,0,0,0,0c0,0,0,0-0.1,0C7.2,24.6,7.1,24.6,7,24.6C7.1,24.6,7.1,24.6,7,24.6z"/>
			<path class="st9" d="M4.5,24.1c0,0,0.1,0.1,0.1,0.1c0.1,0,0.1-0.1,0.1-0.1C4.7,24,4.7,24,4.5,24.1C4.5,24,4.5,24.1,4.5,24.1z"/>
			<path class="st9" d="M5.1,23.6C5.1,23.6,5.1,23.6,5.1,23.6c-0.1,0.1-0.1,0.1-0.1,0.1c0,0,0,0,0,0c0,0,0,0,0,0c0,0,0,0,0,0
				c0,0,0,0,0.1,0c0,0,0,0,0,0c0,0,0,0,0,0c0,0,0,0,0,0c0,0,0,0,0,0c0,0,0,0,0,0c0,0,0,0,0,0c0,0,0,0,0,0c0,0,0,0,0,0l0,0
				c0,0,0,0,0,0c0,0,0,0,0,0c0,0,0,0,0,0C5.3,23.6,5.2,23.6,5.1,23.6C5.2,23.6,5.2,23.6,5.1,23.6C5.2,23.6,5.2,23.6,5.1,23.6z"/>
			<path class="st9" d="M3.8,24.7C3.8,24.7,3.8,24.7,3.8,24.7C3.8,24.7,3.8,24.7,3.8,24.7L3.8,24.7C3.8,24.7,3.7,24.7,3.8,24.7
				C3.7,24.7,3.7,24.7,3.8,24.7C3.7,24.7,3.7,24.7,3.8,24.7C3.7,24.8,3.7,24.8,3.8,24.7C3.7,24.8,3.7,24.8,3.8,24.7
				C3.7,24.8,3.7,24.8,3.8,24.7c0,0.1,0,0.1,0,0.1c0,0,0,0,0,0c0,0,0,0,0,0c0,0,0,0,0,0c0,0,0,0,0,0c0,0,0,0,0,0c0,0,0,0,0,0
				c0,0,0,0,0,0c0,0,0,0,0,0c0,0,0,0,0,0c0,0,0,0,0,0c0,0,0,0,0,0c0,0,0,0,0,0C3.9,24.7,3.9,24.7,3.8,24.7
				C3.9,24.7,3.9,24.7,3.8,24.7C3.9,24.7,3.9,24.7,3.8,24.7C3.8,24.7,3.8,24.7,3.8,24.7C3.8,24.7,3.8,24.7,3.8,24.7
				C3.8,24.7,3.8,24.7,3.8,24.7z"/>
			<g>
				<path class="st9" d="M3.9,23.3C3.9,23.3,3.9,23.4,3.9,23.3C3.8,23.4,3.8,23.4,3.9,23.3C3.8,23.4,3.8,23.4,3.9,23.3
					C3.8,23.4,3.8,23.4,3.9,23.3C3.8,23.4,3.8,23.4,3.9,23.3C3.8,23.4,3.8,23.4,3.9,23.3c-0.1,0.1-0.1,0.1-0.1,0.1c0,0,0,0,0,0
					c0,0,0,0,0,0c0,0,0,0,0,0c0,0,0,0,0,0c0,0,0,0,0,0c0,0,0,0,0,0c0,0,0,0,0,0c0,0,0,0,0,0c0,0,0,0,0,0c0,0,0,0,0,0c0,0,0,0,0,0
					c0,0,0,0,0,0c0,0,0,0,0,0c0,0,0,0,0,0c0,0,0,0,0,0c0,0,0,0,0,0c0,0,0,0,0,0c0,0,0,0,0,0c0,0,0,0,0,0c0,0,0,0,0,0c0,0,0,0,0,0
					c0,0,0,0,0,0c0,0,0,0,0-0.1c0,0,0,0,0,0C4,23.3,4,23.3,3.9,23.3C4,23.3,3.9,23.3,3.9,23.3C3.9,23.3,3.9,23.3,3.9,23.3
					C3.9,23.3,3.9,23.3,3.9,23.3C3.9,23.3,3.9,23.3,3.9,23.3C3.9,23.3,3.9,23.3,3.9,23.3C3.9,23.3,3.9,23.3,3.9,23.3
					C3.9,23.3,3.9,23.3,3.9,23.3C3.9,23.3,3.9,23.3,3.9,23.3C3.9,23.3,3.9,23.3,3.9,23.3z"/>
				<polygon class="st9" points="4,23.5 4,23.5 4,23.5 4,23.5 				"/>
				<polygon class="st9" points="4,23.5 4,23.5 4,23.5 				"/>
			</g>
			<g>
				<path class="st9" d="M3,22.9C3,22.9,3,22.9,3,22.9C3,22.9,3,22.9,3,22.9z"/>
				<path class="st9" d="M3.3,22.6C3.3,22.5,3.2,22.5,3.3,22.6c-0.1,0-0.1,0-0.1,0c0,0,0,0,0,0c0,0,0,0,0,0l0,0c0,0,0,0,0,0
					c0,0,0,0,0,0c0,0,0,0,0,0c0,0,0,0,0,0.1c0,0,0,0.1,0,0.1c0,0,0,0,0,0c0,0,0,0,0,0c0,0,0,0,0,0c0,0,0,0,0,0c0,0,0,0,0,0
					c0,0,0,0,0.1,0c0,0,0,0,0,0c0,0,0,0,0,0l0,0c0,0,0,0,0,0c0,0,0.1-0.1,0.1-0.1c0,0,0,0,0,0c0,0,0,0,0,0c0,0,0,0,0,0
					C3.3,22.7,3.3,22.7,3.3,22.6C3.3,22.6,3.3,22.6,3.3,22.6C3.3,22.6,3.3,22.6,3.3,22.6C3.3,22.6,3.3,22.6,3.3,22.6z"/>
			</g>
			<path class="st9" d="M24,4.8c0-0.1,0.1-0.1,0.2-0.2c0,0,0.1,0,0.2,0c0,0,0.1,0.1,0.1,0.1c0,0,0,0.1,0,0.1c0,0,0,0-0.1,0.1
				c0,0-0.1,0-0.1,0c0,0,0,0-0.1,0C24.1,4.9,24,4.9,24,4.8C24,4.9,24,4.9,24,4.8C24,4.9,24,4.8,24,4.8z"/>
			<path class="st9" d="M24.8,5.3C24.8,5.3,24.8,5.3,24.8,5.3C24.9,5.3,24.9,5.3,24.8,5.3C24.9,5.3,24.9,5.3,24.8,5.3
				c0.1-0.1,0.1-0.1,0.2-0.1c0,0,0,0,0,0c0,0,0,0,0,0c0,0,0.1,0,0.1,0c0,0,0.1,0,0,0.1c0,0,0,0,0,0c0,0,0,0,0,0c0,0,0,0,0,0
				c0,0,0,0,0,0c0,0,0,0,0,0c0,0,0,0,0,0c0,0,0,0,0,0c0,0,0,0,0,0c0,0,0,0,0,0C24.9,5.4,24.9,5.4,24.8,5.3
				C24.9,5.4,24.9,5.4,24.8,5.3C24.9,5.4,24.8,5.4,24.8,5.3C24.8,5.4,24.8,5.4,24.8,5.3z"/>
			<path class="st9" d="M24.1,5.5c0,0,0-0.1,0-0.1c0,0,0,0,0,0c0,0,0,0,0,0c0,0,0.1,0,0.1,0c0,0,0,0,0,0c0,0,0,0,0,0c0,0,0,0,0,0
				c0,0,0,0,0,0.1c0,0,0,0,0,0c0,0,0,0,0,0c0,0,0,0,0,0c0,0,0,0,0,0c0,0,0,0-0.1,0C24.2,5.5,24.1,5.5,24.1,5.5
				C24.1,5.5,24.1,5.5,24.1,5.5C24.1,5.5,24.1,5.5,24.1,5.5z"/>
			<path class="st9" d="M24.2,5.9c0.1,0,0.2,0,0.1,0.1C24.3,6,24.1,5.9,24.2,5.9z"/>
			<path class="st9" d="M22.4,5.4C22.5,5.4,22.5,5.4,22.4,5.4C22.5,5.4,22.5,5.4,22.4,5.4c0.1,0,0.1,0,0.1,0c0,0,0,0,0.1,0
				c0,0,0,0,0,0c0,0,0,0,0.1,0c0,0,0,0,0,0c0,0,0,0,0,0c0,0,0,0,0,0c0,0,0,0,0,0c0,0,0,0,0,0c0,0,0,0,0,0c0,0,0,0,0,0c0,0,0,0,0,0
				c0,0,0,0,0,0c0,0,0,0,0,0c0,0,0,0-0.1,0c0,0-0.1,0-0.1,0c0,0-0.1,0-0.1,0.1c0,0,0,0,0,0C22.4,5.3,22.4,5.3,22.4,5.4
				C22.4,5.4,22.4,5.4,22.4,5.4z"/>
			<path class="st9" d="M25.9,5.8C25.9,5.8,25.9,5.8,25.9,5.8C25.9,5.8,25.9,5.8,25.9,5.8C25.9,5.8,25.9,5.8,25.9,5.8
				C25.9,5.8,25.9,5.8,25.9,5.8C25.9,5.8,25.9,5.8,25.9,5.8C25.9,5.8,25.9,5.8,25.9,5.8C26,5.7,26,5.7,26,5.7c0,0,0.1,0,0.1,0
				c0,0,0,0,0,0c0,0,0,0,0,0c0,0,0,0,0,0c0,0,0,0,0,0c0,0,0,0,0,0c0,0,0,0,0,0c0,0,0,0,0,0c0,0,0,0,0,0c0,0,0,0,0,0
				C25.9,5.9,25.9,5.9,25.9,5.8C25.9,5.9,25.9,5.9,25.9,5.8C25.9,5.9,25.9,5.9,25.9,5.8z"/>
			<path class="st9" d="M25.6,6.7C25.6,6.7,25.6,6.7,25.6,6.7C25.6,6.7,25.6,6.7,25.6,6.7C25.6,6.7,25.6,6.7,25.6,6.7
				c0-0.1,0-0.1,0-0.1c0,0,0,0,0.1,0c0,0,0,0,0.1,0c0,0,0,0,0.1,0c0,0,0,0,0,0c0,0,0,0,0,0c0,0,0,0,0,0c0,0,0,0,0,0c0,0,0,0,0,0
				c0,0,0,0,0,0c0,0,0,0,0,0c0,0,0,0,0,0C25.8,6.8,25.8,6.8,25.6,6.7C25.7,6.8,25.7,6.8,25.6,6.7C25.7,6.8,25.7,6.8,25.6,6.7
				C25.7,6.8,25.7,6.8,25.6,6.7C25.7,6.7,25.7,6.7,25.6,6.7C25.7,6.7,25.7,6.7,25.6,6.7L25.6,6.7z"/>
			<g>
				<path class="st9" d="M26.9,6.7C26.9,6.7,27,6.7,26.9,6.7C27,6.7,27,6.7,26.9,6.7c0.1,0,0.2,0,0.2,0c0.1,0,0.1-0.1,0.1-0.1
					c0,0,0,0,0,0c0,0,0,0,0,0c0,0,0,0,0-0.1c0,0,0,0,0,0c0,0,0,0,0,0c0,0-0.1,0-0.1,0c0,0,0,0,0,0c0,0,0,0,0,0c0,0,0,0,0,0
					c0,0,0,0,0,0c0,0,0,0,0,0c0,0-0.1,0-0.1,0.1c0,0,0,0,0,0C26.9,6.5,26.9,6.6,26.9,6.7C26.9,6.6,26.9,6.6,26.9,6.7z"/>
				<path class="st9" d="M27.1,6.4C27.1,6.4,27.1,6.4,27.1,6.4C27.1,6.4,27.1,6.4,27.1,6.4C27.1,6.4,27.1,6.4,27.1,6.4z"/>
			</g>
			<path class="st9" d="M26.3,6.5C26.3,6.5,26.3,6.5,26.3,6.5C26.3,6.5,26.3,6.5,26.3,6.5C26.3,6.5,26.3,6.5,26.3,6.5
				C26.3,6.5,26.4,6.5,26.3,6.5C26.4,6.5,26.4,6.5,26.3,6.5C26.4,6.5,26.4,6.5,26.3,6.5C26.4,6.5,26.4,6.5,26.3,6.5
				C26.4,6.5,26.4,6.5,26.3,6.5C26.4,6.5,26.4,6.5,26.3,6.5c0.1-0.1,0.1-0.1,0.1-0.1c0,0,0,0,0,0c0,0,0,0,0,0c0,0,0,0,0,0
				c0,0,0,0,0,0c0,0,0,0,0,0c0,0,0,0,0,0c0,0,0,0,0,0c0,0,0,0,0,0c0,0,0,0,0,0c0,0,0,0,0,0c0,0,0,0,0,0c0,0,0,0,0,0c0,0,0,0,0,0
				c0,0,0,0,0,0c0,0,0,0,0,0c0,0,0,0,0,0c0,0,0,0,0,0c0,0,0,0,0,0c0,0,0,0,0,0l0,0c0,0,0,0,0,0C26.4,6.6,26.4,6.6,26.3,6.5
				C26.4,6.6,26.4,6.6,26.3,6.5C26.4,6.6,26.4,6.6,26.3,6.5C26.4,6.6,26.4,6.6,26.3,6.5C26.4,6.6,26.4,6.6,26.3,6.5
				C26.4,6.6,26.4,6.6,26.3,6.5C26.4,6.6,26.3,6.6,26.3,6.5C26.3,6.6,26.3,6.5,26.3,6.5z"/>
			<path class="st9" d="M24.5,6.6C24.5,6.6,24.5,6.6,24.5,6.6C24.5,6.6,24.5,6.6,24.5,6.6C24.5,6.6,24.6,6.6,24.5,6.6
				c0.1,0,0.1,0,0.1,0c0,0,0,0,0,0c0,0,0,0,0,0c0,0,0,0,0,0c0,0,0,0,0,0c0,0,0,0,0,0c0,0,0,0,0,0c0,0,0,0,0,0c0,0,0,0,0,0
				c0,0,0,0,0,0c0,0,0,0,0,0c0,0,0,0,0,0c0,0,0,0,0,0c0,0,0,0,0,0c0,0,0,0,0,0c0,0,0,0,0,0c0,0,0,0,0,0c0,0,0,0,0,0c0,0,0,0,0,0
				c0,0,0,0,0,0c0,0,0,0,0,0c0,0,0,0,0,0c0,0,0,0,0,0c0,0,0,0,0,0c0,0,0,0,0,0c0,0,0,0,0,0c0,0,0,0,0,0c0,0,0,0,0,0c0,0,0,0,0,0
				c0,0,0,0,0,0c0,0,0,0,0,0c0,0,0,0-0.1,0c0,0,0,0,0,0C24.5,6.5,24.5,6.5,24.5,6.6C24.5,6.5,24.5,6.5,24.5,6.6
				C24.5,6.5,24.5,6.5,24.5,6.6C24.5,6.5,24.5,6.5,24.5,6.6C24.5,6.6,24.5,6.6,24.5,6.6z"/>
			<path class="st9" d="M22.6,4.5C22.6,4.4,22.6,4.4,22.6,4.5C22.7,4.4,22.7,4.4,22.6,4.5c0.1-0.1,0.1-0.2,0.1-0.2
				c0,0,0.1-0.1,0.1-0.1c0,0,0.1,0,0.1,0c0,0,0,0,0.1,0c0,0,0,0,0,0c0,0,0,0.1,0,0.1c0,0,0,0.1,0,0.1c0,0,0,0,0,0c0,0,0,0,0,0
				c0,0,0,0,0,0c0,0-0.1,0-0.1,0c-0.1,0-0.2,0-0.2,0C22.6,4.5,22.6,4.5,22.6,4.5z"/>
			<path class="st9" d="M21.9,4.8c0.1,0,0.2,0,0.1,0.1C21.9,4.9,21.8,4.8,21.9,4.8z"/>
			<path class="st9" d="M21.8,5.5c0.1,0,0.2,0,0.1,0.1C21.8,5.7,21.7,5.6,21.8,5.5z"/>
			<path class="st9" d="M22.8,6.3C22.8,6.3,22.8,6.2,22.8,6.3C22.8,6.2,22.8,6.2,22.8,6.3c0-0.1,0-0.1,0.1-0.1c0,0,0,0,0,0
				c0,0,0,0,0.1,0c0,0,0.1,0,0.1,0c0,0,0,0,0,0c0,0,0,0,0,0c0,0,0,0,0,0c0,0,0,0,0,0c0,0,0,0,0,0c0,0,0,0,0,0c0,0,0,0,0,0
				c0,0,0,0,0,0c0,0,0,0,0,0c0,0-0.1,0-0.1,0.1c0,0-0.1,0-0.1,0C22.9,6.3,22.9,6.3,22.8,6.3C22.8,6.3,22.8,6.3,22.8,6.3
				C22.8,6.3,22.8,6.3,22.8,6.3z"/>
			<path class="st9" d="M28.7,9.8c0,0,0,0.1,0,0.1c0,0-0.1,0.1-0.1,0c0,0,0-0.1,0-0.1C28.6,9.7,28.7,9.7,28.7,9.8z"/>
			<path class="st9" d="M27.9,10.1C27.9,10.1,27.9,10.1,27.9,10.1C27.9,10.2,27.9,10.2,27.9,10.1C27.9,10.2,27.9,10.2,27.9,10.1
				c0,0.1,0,0.1,0,0.1c0,0,0,0,0,0l0,0c0,0,0,0,0,0c0,0,0,0,0,0c0,0,0,0,0,0c0,0,0,0,0,0c0,0,0,0,0,0c0,0,0,0,0.1,0c0,0,0,0,0,0
				c0,0,0,0,0,0c0,0,0,0,0-0.1c0,0,0,0,0,0c0,0,0,0,0,0c0,0,0,0,0-0.1C28.1,10.1,28.1,10.1,27.9,10.1C28,10.1,28,10.1,27.9,10.1
				C27.9,10.1,27.9,10.1,27.9,10.1z"/>
			<path class="st9" d="M29.5,9.4C29.5,9.4,29.5,9.4,29.5,9.4C29.5,9.4,29.5,9.4,29.5,9.4L29.5,9.4C29.6,9.4,29.6,9.4,29.5,9.4
				C29.6,9.4,29.6,9.4,29.5,9.4C29.6,9.4,29.6,9.4,29.5,9.4C29.6,9.4,29.6,9.4,29.5,9.4c0.1,0,0.1,0,0.1,0c0,0,0,0,0,0c0,0,0,0,0,0
				c0,0,0,0,0,0c0,0,0,0,0,0c0,0,0,0,0,0c0,0,0,0,0,0c0,0,0,0,0,0c0,0,0,0,0,0c0,0,0,0,0,0c0,0,0,0,0,0c0,0,0,0,0,0c0,0,0,0,0,0
				c0,0,0,0,0,0c0,0,0,0,0,0C29.5,9.5,29.5,9.5,29.5,9.4C29.5,9.5,29.5,9.5,29.5,9.4C29.5,9.4,29.5,9.4,29.5,9.4
				C29.5,9.4,29.5,9.4,29.5,9.4C29.5,9.4,29.5,9.4,29.5,9.4C29.5,9.4,29.5,9.4,29.5,9.4z"/>
			<g>
				<path class="st9" d="M28.3,7.8C28.3,7.8,28.3,7.8,28.3,7.8C28.3,7.8,28.3,7.8,28.3,7.8z"/>
				<path class="st9" d="M27.9,7.9C27.9,7.9,27.9,7.9,27.9,7.9C28,7.8,28,7.8,27.9,7.9C28,7.8,28,7.8,28,7.8c0,0,0,0,0,0l0,0
					c0,0,0,0,0,0c0,0,0,0,0,0c0,0,0,0,0,0c0,0,0,0,0.1,0c0,0,0.1,0,0.1,0c0,0,0,0,0,0c0,0,0,0,0,0c0,0,0,0,0,0c0,0,0,0,0,0
					c0,0,0,0,0,0c0,0,0,0,0,0.1c0,0,0,0,0,0c0,0,0,0,0,0l0,0c0,0,0,0,0,0c0,0-0.1,0-0.1,0c0,0,0,0,0,0c0,0,0,0,0,0c0,0,0,0,0,0
					C28.1,8,28,8,27.9,7.9C28,8,28,8,27.9,7.9C28,8,28,8,27.9,7.9C28,7.9,28,7.9,27.9,7.9z"/>
			</g>
			<path class="st9" d="M11.5,14.9C11.4,14.9,11.4,14.9,11.5,14.9C11.4,14.9,11.4,14.9,11.5,14.9c-0.1-0.1-0.1-0.1-0.1-0.1
				c0,0,0,0,0,0c0,0,0,0,0,0c0,0,0,0,0,0c0,0,0,0,0,0c0,0,0,0,0,0c0,0,0,0,0,0c0,0,0,0-0.1,0c0,0,0,0,0,0c0,0,0,0,0,0c0,0,0,0,0,0
				c0,0,0,0,0,0c0,0,0,0,0,0.1c0,0.1,0,0.1,0,0.2c0,0,0.1,0.1,0.1,0.1c0,0,0.1,0,0.1,0c0.1,0,0.1-0.1,0.2-0.1
				c0.1-0.1,0.1-0.1,0.1-0.2C11.5,15,11.5,15,11.5,14.9z"/>
			<path class="st9" d="M12,14.5C12,14.5,12,14.5,12,14.5C12,14.5,12,14.5,12,14.5C12,14.5,12,14.5,12,14.5c-0.1,0-0.2,0-0.2,0
				c0,0,0,0,0,0c0,0,0,0,0,0c0,0,0,0,0,0l0,0c0,0,0,0,0,0c0,0,0,0,0,0c0,0,0,0,0,0c0,0,0,0,0,0c0,0,0,0,0,0c0,0,0,0,0,0c0,0,0,0,0,0
				c0,0,0,0,0,0c0,0,0,0,0,0c0,0,0,0,0,0c0,0,0,0,0,0C12.1,14.6,12.1,14.6,12,14.5C12.1,14.6,12.1,14.6,12,14.5
				C12,14.6,12.1,14.5,12,14.5C12.1,14.5,12.1,14.5,12,14.5C12.1,14.5,12.1,14.5,12,14.5C12.1,14.5,12,14.5,12,14.5z"/>
			<path class="st9" d="M12.8,15.2C12.8,15.2,12.8,15.2,12.8,15.2C12.7,15.2,12.7,15.2,12.8,15.2C12.7,15.2,12.7,15.2,12.8,15.2
				C12.7,15.2,12.7,15.2,12.8,15.2C12.7,15.2,12.7,15.2,12.8,15.2c-0.1,0-0.1,0-0.1,0c0,0,0,0,0,0c0,0,0,0,0,0c0,0,0,0,0,0
				c0,0,0,0,0,0c0,0,0,0,0,0c0,0,0,0,0,0c0,0,0,0,0,0c0,0,0,0,0,0c0,0,0,0,0,0c0,0,0,0,0,0c0,0,0,0,0,0c0,0,0,0,0,0
				C12.8,15.3,12.8,15.3,12.8,15.2C12.8,15.3,12.8,15.2,12.8,15.2C12.8,15.2,12.8,15.2,12.8,15.2z"/>
			<path class="st9" d="M12.1,13.8C12.1,13.8,12.1,13.8,12.1,13.8C12.1,13.8,12.1,13.8,12.1,13.8C12.1,13.8,12.1,13.8,12.1,13.8
				C12.1,13.8,12.1,13.8,12.1,13.8C12.1,13.8,12.1,13.8,12.1,13.8c-0.1,0-0.1,0-0.1,0c0,0-0.1,0-0.1,0.1c0,0,0,0.1,0,0.1
				c0,0,0,0,0,0c0,0,0,0,0,0c0,0,0,0,0,0c0,0,0,0,0,0c0,0,0,0,0,0c0,0,0,0,0,0c0,0,0,0,0,0c0,0,0,0,0,0c0,0,0,0,0,0c0,0,0,0,0,0
				c0,0,0,0,0,0c0,0,0,0,0,0c0,0,0,0,0,0c0,0,0,0,0,0C12.1,13.9,12.1,13.9,12.1,13.8C12.1,13.9,12.1,13.9,12.1,13.8
				C12.1,13.9,12.1,13.9,12.1,13.8L12.1,13.8C12.1,13.9,12.1,13.9,12.1,13.8C12.1,13.9,12.1,13.8,12.1,13.8
				C12.1,13.8,12.1,13.8,12.1,13.8C12.1,13.8,12.1,13.8,12.1,13.8C12.1,13.8,12.1,13.8,12.1,13.8C12.1,13.8,12.1,13.8,12.1,13.8
				C12.1,13.8,12.1,13.8,12.1,13.8C12.1,13.8,12.1,13.8,12.1,13.8z"/>
			<path class="st9" d="M11.3,11.5C11.3,11.5,11.3,11.5,11.3,11.5c-0.1,0-0.1,0-0.2,0c0,0,0,0,0,0c0,0-0.1,0-0.1,0
				c0,0,0,0.1-0.1,0.1c0,0,0,0.1,0,0.1c0,0.1,0,0.1,0.1,0.2c0.1,0,0.2,0,0.2,0c0.1,0,0.1-0.1,0.1-0.2C11.4,11.7,11.4,11.6,11.3,11.5
				C11.4,11.5,11.3,11.5,11.3,11.5z"/>
			<path class="st9" d="M12.1,11.7c-0.1,0-0.1,0.1-0.1,0.1c0,0,0.1,0.1,0.1,0c0.1,0,0.1-0.1,0.1-0.1C12.2,11.6,12.2,11.6,12.1,11.7z
				"/>
			<path class="st9" d="M9.5,12C9.4,12,9.4,12,9.5,12C9.4,12,9.4,12,9.5,12C9.4,12,9.4,12,9.5,12C9.4,12.1,9.4,12.1,9.5,12
				C9.4,12.1,9.4,12.1,9.5,12c-0.1,0-0.1,0-0.1,0c0,0,0,0,0,0c0,0,0,0,0,0c0,0,0,0,0,0c0,0,0,0,0,0c0,0,0,0,0,0c0,0,0,0,0,0
				c0,0,0,0,0,0c0,0,0,0,0,0c0,0,0,0,0,0c0,0,0,0,0,0l0,0c0,0,0,0,0,0c0,0,0,0,0,0c0,0,0,0,0,0C9.5,12.2,9.5,12.1,9.5,12
				C9.5,12.1,9.5,12.1,9.5,12C9.5,12.1,9.5,12.1,9.5,12C9.5,12,9.5,12,9.5,12z"/>
			<path class="st9" d="M8,11.9C8,11.9,8,11.9,8,11.9c-0.1,0-0.1,0-0.1,0c0,0-0.1,0-0.1,0.1c0,0-0.1,0.1-0.1,0.1c0,0,0,0.1,0,0.1
				c0,0,0,0,0,0c0,0,0,0,0,0c0,0,0,0,0,0c0,0,0,0,0,0c0,0,0,0,0,0c0,0,0,0,0,0c0,0,0,0,0,0c0,0,0,0,0,0c0,0,0,0,0-0.1c0,0,0,0,0-0.1
				c0,0,0,0,0,0C8.1,12,8.1,12,8,11.9C8.1,12,8.1,12,8,11.9C8.1,11.9,8.1,11.9,8,11.9z"/>
			<path class="st9" d="M7.6,13C7.6,13,7.6,13,7.6,13C7.6,13,7.6,13,7.6,13C7.6,13,7.6,13,7.6,13C7.6,13,7.5,13,7.6,13
				c-0.1,0-0.1,0-0.1,0c0,0,0,0,0,0c0,0,0,0,0,0c0,0,0,0,0,0c0,0,0,0,0,0c0,0,0,0,0,0c0,0,0,0,0,0c0,0,0,0,0,0c0,0,0,0,0,0
				c0,0,0,0,0,0c0,0,0,0,0,0C7.6,13.1,7.6,13,7.6,13C7.7,13,7.7,13,7.6,13C7.6,13,7.6,13,7.6,13z"/>
			<path class="st9" d="M9.7,11.1c-0.1,0.1-0.1,0.2,0,0.2C9.8,11.2,9.9,11,9.7,11.1z"/>
			<path class="st9" d="M10.7,12.1C10.7,12.1,10.7,12.1,10.7,12.1C10.7,12.1,10.7,12.1,10.7,12.1C10.7,12,10.7,12,10.7,12.1
				C10.6,12,10.6,12,10.7,12.1C10.6,12.1,10.6,12.1,10.7,12.1C10.6,12.1,10.6,12.1,10.7,12.1c-0.1,0-0.1,0-0.1,0c0,0,0,0,0,0
				c0,0,0,0,0,0c0,0,0,0,0,0c0,0,0,0,0,0c0,0,0,0,0,0c0,0,0,0,0,0c0,0,0,0,0,0c0,0,0,0,0,0c0,0,0,0,0,0c0,0,0,0,0,0c0,0,0,0,0,0
				c0,0,0,0,0,0c0,0,0,0,0,0c0,0,0,0,0,0c0,0,0,0,0,0c0,0,0,0,0,0c0,0,0,0,0,0C10.7,12.2,10.7,12.1,10.7,12.1
				C10.7,12.1,10.7,12.1,10.7,12.1C10.7,12.1,10.7,12.1,10.7,12.1z"/>
			<path class="st9" d="M5.9,12.5C5.9,12.5,5.9,12.5,5.9,12.5C5.9,12.5,5.9,12.5,5.9,12.5C5.9,12.5,5.9,12.5,5.9,12.5
				c-0.1,0-0.1,0-0.1,0l0,0c0,0,0,0,0,0.1c0,0,0,0,0,0c0,0,0,0,0,0c0,0,0,0,0,0c0,0,0,0,0,0c0,0,0,0,0.1,0c0,0,0,0,0.1,0
				c0,0,0,0,0,0c0,0,0,0,0,0c0,0,0,0,0,0c0,0,0,0,0,0C6,12.6,6,12.6,5.9,12.5C6,12.6,6,12.6,5.9,12.5C6,12.6,6,12.6,5.9,12.5
				C6,12.6,6,12.5,5.9,12.5C6,12.5,6,12.5,5.9,12.5z"/>
			<path class="st9" d="M5.5,13.1C5.5,13.1,5.5,13.1,5.5,13.1c-0.1,0-0.1,0-0.1,0c0,0,0,0-0.1,0c0,0,0,0,0,0c0,0-0.1,0-0.1,0
				c0,0-0.1,0-0.1,0.1c0,0,0,0.1,0,0.1c0,0,0,0,0,0.1c0,0,0,0,0,0c0,0,0,0,0,0c0,0,0,0,0,0c0,0,0,0,0,0c0,0,0,0,0.1,0c0,0,0,0,0.1,0
				c0.1,0,0.1-0.1,0.2-0.1c0,0,0,0,0,0c0,0,0,0,0,0C5.5,13.3,5.5,13.2,5.5,13.1C5.6,13.2,5.6,13.2,5.5,13.1
				C5.5,13.2,5.5,13.2,5.5,13.1z"/>
			<path class="st9" d="M7,12.6C7,12.6,7,12.6,7,12.6C6.9,12.6,6.9,12.6,7,12.6C6.9,12.6,6.9,12.6,7,12.6c-0.1,0-0.1,0-0.1,0
				c0,0,0,0,0,0.1c0,0,0,0,0,0c0,0,0,0,0,0.1c0,0,0,0,0,0c0,0,0,0,0,0c0,0,0,0,0.1,0c0,0,0,0,0.1,0c0,0,0,0,0,0c0,0,0,0,0,0
				c0,0,0,0,0,0C7,12.7,7,12.7,7,12.6C7,12.6,7,12.6,7,12.6C7,12.6,7,12.6,7,12.6C7,12.6,7,12.6,7,12.6z"/>
			<path class="st9" d="M14.6,8.3C14.6,8.3,14.6,8.3,14.6,8.3C14.5,8.3,14.5,8.3,14.6,8.3c-0.1,0-0.1,0-0.1,0c0,0,0,0,0,0
				c0,0,0,0,0,0c0,0,0,0,0,0c0,0,0,0,0,0c0,0,0,0,0,0c0,0,0,0,0,0c0,0,0,0.1,0,0.1c0,0,0,0,0,0c0,0,0,0,0,0.1c0,0,0,0,0,0
				c0,0,0,0,0,0.1c0,0,0,0,0,0c0,0,0,0,0,0c0,0,0.1,0,0.1,0c0,0,0,0,0.1,0c0,0,0,0,0.1,0c0,0,0,0,0,0c0,0,0,0,0,0c0,0,0.1,0,0.1-0.1
				c0,0,0,0,0-0.1c0,0,0-0.1,0-0.1C14.7,8.4,14.7,8.4,14.6,8.3C14.6,8.4,14.6,8.3,14.6,8.3z"/>
			<path class="st9" d="M14.8,8.9c-0.1,0-0.1,0.1-0.1,0.2c0,0.1,0.1,0.1,0.1,0c0.1,0,0.1-0.1,0.1-0.2C14.9,8.9,14.9,8.9,14.8,8.9z"
				/>
			<path class="st9" d="M14.4,10.1C14.4,10.1,14.4,10.1,14.4,10.1C14.3,10.1,14.3,10.1,14.4,10.1C14.3,10.1,14.3,10.1,14.4,10.1
				C14.3,10.1,14.3,10.1,14.4,10.1c-0.1,0-0.1,0-0.1,0c0,0,0,0,0,0c0,0,0,0,0,0c0,0,0,0,0,0c0,0,0,0,0,0c0,0,0,0,0,0c0,0,0,0,0,0
				c0,0,0,0,0,0c0,0,0,0,0,0c0,0,0,0,0,0c0,0,0,0,0,0c0,0,0,0,0,0c0,0,0,0,0,0c0,0,0,0,0,0c0,0,0,0,0,0c0,0,0,0,0,0c0,0,0,0,0,0l0,0
				c0,0,0,0,0,0c0,0,0,0,0,0c0,0,0,0,0,0c0,0,0,0,0,0c0,0,0,0,0,0c0,0,0,0,0,0c0,0,0,0,0,0c0,0,0,0,0,0c0,0,0,0,0,0c0,0,0,0,0,0
				c0,0,0,0,0,0c0,0,0,0,0,0C14.4,10.2,14.4,10.2,14.4,10.1C14.4,10.2,14.4,10.2,14.4,10.1L14.4,10.1C14.4,10.1,14.4,10.1,14.4,10.1
				C14.4,10.1,14.4,10.1,14.4,10.1z"/>
			<path class="st9" d="M15.5,8.4c-0.1,0.1-0.1,0.2,0,0.1C15.6,8.4,15.6,8.3,15.5,8.4z"/>
			<g>
				<path class="st9" d="M16,9.1C16,9.1,16,9.1,16,9.1C16,9.1,16,9.1,16,9.1z"/>
			</g>
			<path class="st9" d="M13.7,9.5C13.7,9.4,13.7,9.4,13.7,9.5c-0.1,0-0.1,0-0.1,0c0,0,0,0,0,0c0,0,0,0,0,0c0,0,0,0,0,0h0
				c0,0,0,0,0,0c0,0,0,0,0,0c0,0,0,0,0,0c0,0,0,0,0,0c0,0,0,0,0,0c0,0,0,0,0,0c0,0,0,0,0,0c0,0,0,0,0,0c0,0,0,0,0,0c0,0,0,0,0,0
				c0,0,0,0,0,0c0,0,0,0,0,0c0,0,0.1,0,0.1,0c0,0,0,0,0,0c0,0,0,0,0,0c0,0,0,0,0,0c0,0,0,0,0,0c0,0,0,0,0,0
				C13.7,9.5,13.7,9.5,13.7,9.5C13.7,9.5,13.7,9.5,13.7,9.5C13.7,9.5,13.7,9.5,13.7,9.5z"/>
			<g>
				<path class="st9" d="M15.1,13.2C15.1,13.2,15.1,13.2,15.1,13.2C15.1,13.2,15.1,13.2,15.1,13.2C15.1,13.2,15.1,13.2,15.1,13.2z"
					/>
				<path class="st9" d="M15.3,13.1C15.3,13.1,15.3,13.1,15.3,13.1c-0.1,0-0.1,0-0.2,0c0,0,0,0-0.1,0c0,0,0,0,0,0c0,0,0,0,0,0
					c0,0,0,0,0,0c0,0,0,0,0,0c0,0,0,0-0.1,0c0,0,0,0,0,0c0,0,0,0,0,0c0,0,0,0,0,0c0,0,0,0,0,0c0,0,0,0,0,0.1c0,0,0,0.1,0,0.1
					c0,0,0,0.1,0,0.1c0,0,0,0,0.1,0.1c0.1,0,0.1,0,0.2,0c0.1,0,0.1-0.1,0.2-0.2c0,0,0-0.1,0-0.1c0,0,0-0.1,0-0.1c0,0,0,0,0,0
					C15.4,13.2,15.4,13.2,15.3,13.1C15.4,13.1,15.4,13.1,15.3,13.1z"/>
			</g>
			<path class="st9" d="M15.5,12.4c-0.1,0-0.1,0.1-0.1,0.2c0,0,0.1,0.1,0.1,0c0.1,0,0.1-0.1,0.1-0.2C15.6,12.4,15.6,12.4,15.5,12.4z
				"/>
			<path class="st9" d="M16.3,13.4C16.3,13.4,16.3,13.4,16.3,13.4C16.3,13.4,16.3,13.4,16.3,13.4c-0.1,0-0.1,0-0.1,0c0,0,0,0,0,0
				c0,0,0,0,0,0c0,0,0,0,0,0c0,0,0,0,0,0c0,0,0,0,0,0c0,0,0,0,0,0c0,0,0,0,0,0c0,0,0,0,0,0c0,0,0,0,0,0c0,0,0,0,0,0c0,0,0,0,0,0
				C16.4,13.5,16.4,13.5,16.3,13.4C16.4,13.5,16.4,13.5,16.3,13.4L16.3,13.4C16.3,13.4,16.3,13.4,16.3,13.4z"/>
			<path class="st9" d="M14.2,12.2C14.2,12.2,14.2,12.2,14.2,12.2C14.1,12.2,14.1,12.2,14.2,12.2C14.1,12.2,14.1,12.2,14.2,12.2
				l-0.1,0c0,0,0,0,0,0c0,0,0,0,0,0c0,0,0,0,0,0c0,0,0,0,0,0c0,0,0,0,0,0c0,0,0,0,0,0c0,0,0,0,0,0c0,0,0,0,0,0c0,0,0,0,0,0
				c0,0,0,0,0,0c0,0,0,0,0,0c0,0,0,0,0,0l0,0c0,0,0,0,0,0C14.2,12.3,14.2,12.3,14.2,12.2C14.2,12.3,14.2,12.3,14.2,12.2
				C14.2,12.2,14.2,12.2,14.2,12.2C14.2,12.2,14.2,12.2,14.2,12.2z"/>
			<path class="st9" d="M13.7,16.8C13.7,16.8,13.7,16.8,13.7,16.8c-0.1,0-0.2,0.1-0.2,0.1c0,0,0,0,0,0.1c0,0-0.1,0.1,0,0.1
				c0,0,0,0,0,0c0,0,0,0,0.1,0c0,0,0,0,0,0c0,0,0,0,0,0c0,0,0,0,0,0c0,0,0,0,0,0c0,0,0,0,0,0c0,0,0,0,0,0.1c0,0,0,0,0.1,0
				c0,0,0.1-0.1,0.1-0.1c0,0,0-0.1,0-0.1C13.8,17,13.8,16.9,13.7,16.8C13.8,16.8,13.8,16.8,13.7,16.8z"/>
			<path class="st9" d="M13.9,16.1C13.9,16.1,13.9,16.1,13.9,16.1C13.9,16.1,13.9,16.1,13.9,16.1c-0.1,0-0.1,0-0.1,0c0,0,0,0,0,0
				c0,0,0,0,0,0c0,0,0,0,0,0c0,0,0,0,0,0c0,0,0,0,0,0c0,0,0,0,0,0l0,0l0,0c0,0,0,0,0,0c0,0,0,0,0,0c0,0,0,0,0,0c0,0,0,0,0,0
				c0,0,0,0,0,0c0,0,0,0,0,0c0,0,0,0,0,0c0,0,0,0,0,0c0,0,0,0,0.1,0c0,0,0,0,0.1,0c0,0,0,0,0,0c0,0,0,0,0,0c0,0,0,0,0,0
				C13.9,16.2,13.9,16.2,13.9,16.1C13.9,16.1,13.9,16.1,13.9,16.1C13.9,16.1,13.9,16.1,13.9,16.1z"/>
			<path class="st9" d="M11.9,16.3C11.9,16.3,11.9,16.3,11.9,16.3C11.8,16.3,11.8,16.3,11.9,16.3c-0.1,0-0.1,0-0.1,0c0,0,0,0,0,0
				c0,0,0,0,0,0c0,0,0,0,0,0c0,0,0,0,0,0.1c0,0,0,0,0,0c0,0,0,0,0,0c0,0,0,0,0,0c0,0,0,0,0,0c0,0,0,0,0,0c0,0,0,0,0,0c0,0,0,0,0,0
				c0,0,0,0,0,0c0,0,0,0,0,0c0,0,0,0,0.1,0c0,0,0,0,0,0C11.9,16.5,11.9,16.4,11.9,16.3C11.9,16.4,11.9,16.4,11.9,16.3
				C11.9,16.4,11.9,16.4,11.9,16.3C11.9,16.4,11.9,16.4,11.9,16.3C11.9,16.4,11.9,16.3,11.9,16.3z"/>
			<path class="st9" d="M8.7,26.6C8.7,26.6,8.7,26.6,8.7,26.6C8.7,26.6,8.7,26.6,8.7,26.6c-0.1,0-0.1,0-0.1,0c0,0,0,0,0,0
				c0,0,0,0,0,0c0,0,0,0,0,0c0,0,0,0,0,0c0,0,0,0,0,0c0,0,0,0,0,0c0,0,0,0,0,0c0,0,0,0,0,0c0,0,0,0,0,0c0,0,0,0,0,0c0,0,0,0,0,0
				c0,0,0,0,0,0c0,0,0,0,0,0c0,0,0,0,0.1-0.1c0,0,0,0,0,0c0,0,0,0,0-0.1c0,0,0-0.1,0-0.1c0,0,0,0,0,0C8.8,26.7,8.8,26.7,8.7,26.6
				C8.8,26.7,8.8,26.7,8.7,26.6C8.7,26.6,8.7,26.6,8.7,26.6z"/>
			<path class="st9" d="M5.8,26.1C5.8,26.1,5.8,26.1,5.8,26.1C5.8,26.1,5.8,26.1,5.8,26.1C5.8,26.1,5.8,26.1,5.8,26.1
				C5.8,26.1,5.8,26.1,5.8,26.1C5.7,26,5.7,26,5.8,26.1C5.7,26,5.7,26,5.8,26.1C5.7,26,5.7,26,5.8,26.1c-0.1,0-0.1,0-0.1,0
				c0,0,0,0,0,0c0,0,0,0,0,0c0,0,0,0,0,0c0,0,0,0,0,0c0,0,0,0,0,0c0,0,0,0,0,0c0,0,0,0,0,0c0,0,0,0,0,0c0,0,0,0,0,0c0,0,0,0,0,0
				c0,0,0,0,0,0c0,0,0,0,0,0c0,0,0,0,0,0c0,0,0,0,0,0c0,0,0,0,0,0c0,0,0,0,0,0c0,0,0,0,0,0c0,0,0,0,0,0c0,0,0,0,0,0c0,0,0,0,0,0
				c0,0,0,0,0,0c0,0,0,0,0,0c0,0,0,0,0,0l0,0c0,0,0,0,0,0c0,0,0,0,0-0.1C5.8,26.2,5.8,26.2,5.8,26.1C5.8,26.1,5.8,26.1,5.8,26.1
				C5.8,26.1,5.8,26.1,5.8,26.1C5.8,26.1,5.8,26.1,5.8,26.1C5.8,26.1,5.8,26.1,5.8,26.1z"/>
			<path class="st9" d="M10.2,26.9C10.2,26.9,10.2,26.9,10.2,26.9C10.2,26.9,10.1,26.9,10.2,26.9c-0.1,0-0.2,0-0.2,0.1c0,0,0,0,0,0
				c0,0,0,0,0,0c0,0,0,0,0,0c0,0,0,0,0,0c0,0,0,0,0,0c0,0,0,0,0,0c0,0,0,0,0,0c0,0,0,0,0,0c0,0,0,0,0,0c0,0,0,0,0,0c0,0,0,0,0,0
				c0,0,0,0,0,0c0,0,0,0,0,0c0,0,0,0,0.1,0c0,0,0,0,0.1-0.1c0,0,0,0,0,0c0,0,0,0,0,0c0,0,0,0,0,0c0,0,0,0,0,0c0,0,0,0,0,0
				C10.2,27.1,10.2,27,10.2,26.9C10.2,27,10.2,27,10.2,26.9C10.2,27,10.2,27,10.2,26.9C10.2,27,10.2,27,10.2,26.9
				C10.2,27,10.2,27,10.2,26.9C10.2,27,10.2,27,10.2,26.9C10.2,27,10.2,27,10.2,26.9C10.2,27,10.2,27,10.2,26.9
				C10.2,27,10.2,27,10.2,26.9C10.2,26.9,10.2,26.9,10.2,26.9C10.2,26.9,10.2,26.9,10.2,26.9z"/>
			<path class="st9" d="M10.1,26.2c-0.1,0-0.1,0.1-0.1,0.1c0,0,0,0.1,0.1,0C10.1,26.3,10.2,26.2,10.1,26.2
				C10.2,26.1,10.1,26.1,10.1,26.2z"/>
			<path class="st9" d="M9.6,26.1C9.6,26.1,9.6,26.1,9.6,26.1C9.6,26.1,9.6,26,9.6,26.1C9.6,26,9.6,26,9.6,26.1
				C9.5,26,9.5,26,9.6,26.1c-0.1,0-0.1,0-0.1,0c0,0,0,0,0,0c0,0,0,0,0,0c0,0,0,0,0,0c0,0,0,0,0,0c0,0,0,0,0,0c0,0,0,0,0,0
				c0,0,0,0,0,0c0,0,0,0,0,0c0,0,0,0,0,0c0,0,0,0,0,0c0,0,0,0,0,0c0,0,0,0,0,0c0,0,0,0,0,0c0,0,0,0,0,0c0,0,0,0,0,0c0,0,0,0,0,0
				C9.6,26.2,9.6,26.2,9.6,26.1C9.6,26.2,9.6,26.2,9.6,26.1C9.6,26.1,9.6,26.1,9.6,26.1C9.6,26.1,9.6,26.1,9.6,26.1
				C9.6,26.1,9.6,26.1,9.6,26.1z"/>
			<path class="st9" d="M12.8,25C12.8,25,12.8,25,12.8,25C12.8,25,12.8,25,12.8,25c-0.1,0-0.1,0-0.1,0c0,0-0.1,0-0.1,0.1
				c0,0,0,0,0,0c0,0,0,0,0,0c0,0,0,0-0.1,0.1c0,0,0,0.1,0,0.1c0,0,0,0,0,0.1c0,0,0,0,0,0c0,0,0,0,0,0c0,0,0.1,0,0.1,0
				c0,0,0.1,0,0.1,0c0.1,0,0.1-0.1,0.1-0.2c0,0,0,0,0,0c0,0,0,0,0,0C12.8,25.2,12.9,25.1,12.8,25C12.8,25.1,12.8,25,12.8,25z"/>
			<path class="st9" d="M13,24.3C13,24.3,13,24.3,13,24.3C12.9,24.3,12.9,24.3,13,24.3C12.9,24.3,12.9,24.3,13,24.3
				c-0.1,0-0.1,0-0.1,0c0,0,0,0,0,0c0,0,0,0,0,0c0,0,0,0,0,0c0,0,0,0,0,0c0,0,0,0,0,0c0,0,0,0,0,0c0,0,0,0,0,0c0,0,0,0,0,0
				c0,0,0,0,0,0c0,0,0,0,0,0c0,0,0,0,0,0c0,0,0,0,0,0c0,0,0,0,0,0l0,0c0,0,0,0,0,0c0,0,0,0,0,0c0,0,0,0,0,0c0,0,0,0,0,0c0,0,0,0,0,0
				c0,0,0,0,0,0c0,0,0,0,0,0c0,0,0,0,0,0c0,0,0,0,0,0C13,24.4,13,24.4,13,24.3C13,24.4,13,24.4,13,24.3C13,24.4,13,24.4,13,24.3
				C13,24.4,13,24.4,13,24.3C13,24.4,13,24.4,13,24.3C13,24.3,13,24.3,13,24.3z"/>
			<path class="st9" d="M14.4,22.2C14.4,22.2,14.4,22.2,14.4,22.2C14.4,22.2,14.4,22.2,14.4,22.2c-0.1,0-0.1,0-0.1,0c0,0,0,0,0,0
				l0,0c0,0,0,0,0,0c0,0,0,0,0,0c0,0,0,0,0,0c0,0,0,0,0,0c0,0,0,0,0,0c0,0,0,0,0,0c0,0,0,0,0,0c0,0,0,0,0,0c0,0,0,0,0,0c0,0,0,0,0,0
				C14.4,22.3,14.4,22.3,14.4,22.2C14.4,22.2,14.5,22.2,14.4,22.2C14.4,22.2,14.4,22.2,14.4,22.2z"/>
			<path class="st9" d="M14,24.3C14,24.3,14,24.3,14,24.3C14,24.3,14,24.3,14,24.3C14,24.3,14,24.3,14,24.3C14,24.3,14,24.3,14,24.3
				C14,24.3,13.9,24.3,14,24.3C13.9,24.3,13.9,24.3,14,24.3C13.9,24.3,13.9,24.3,14,24.3C13.9,24.3,13.9,24.3,14,24.3
				C13.9,24.3,13.9,24.3,14,24.3C13.9,24.3,13.9,24.3,14,24.3c-0.1,0-0.1,0-0.1,0c0,0,0,0,0,0c0,0,0,0,0,0c0,0,0,0,0,0c0,0,0,0,0,0
				c0,0,0,0,0,0c0,0,0,0,0,0c0,0,0,0,0,0c0,0,0,0,0,0c0,0,0,0,0,0c0,0,0,0,0,0c0,0,0,0,0,0c0,0,0,0,0,0c0,0,0,0,0,0c0,0,0,0,0,0
				c0,0,0,0,0,0c0,0,0,0,0,0c0,0,0,0,0,0c0,0,0,0,0,0C14,24.4,14,24.4,14,24.3C14,24.3,14,24.3,14,24.3C14,24.3,14,24.3,14,24.3
				C14,24.3,14,24.3,14,24.3C14,24.3,14,24.3,14,24.3C14,24.3,14,24.3,14,24.3C14,24.3,14,24.3,14,24.3C14,24.3,14,24.3,14,24.3
				C14,24.3,14,24.3,14,24.3z"/>
			<path class="st9" d="M12.1,27.4C12.1,27.4,12.1,27.4,12.1,27.4C12,27.4,12,27.4,12.1,27.4C12,27.4,12,27.4,12.1,27.4
				c-0.1,0-0.1,0-0.1,0c0,0,0,0,0,0c0,0,0,0,0,0c0,0,0,0,0,0c0,0,0,0,0,0c0,0,0,0,0,0c0,0,0,0,0,0c0,0,0,0,0,0c0,0,0,0,0,0
				c0,0,0,0,0,0c0,0,0,0,0,0c0,0,0,0,0,0c0,0,0,0,0,0C12.1,27.5,12.1,27.5,12.1,27.4C12.1,27.5,12.1,27.5,12.1,27.4
				C12.1,27.5,12.1,27.5,12.1,27.4C12.1,27.5,12.1,27.5,12.1,27.4C12.1,27.4,12.1,27.4,12.1,27.4C12.1,27.4,12.1,27.4,12.1,27.4
				C12.1,27.4,12.1,27.4,12.1,27.4C12.1,27.4,12.1,27.4,12.1,27.4z"/>
			<path class="st9" d="M16.3,17C16.3,17,16.2,17,16.3,17c-0.1,0-0.1,0-0.1,0c0,0,0,0,0,0c0,0,0,0,0,0c0,0,0,0,0,0c0,0,0,0-0.1,0
				l0,0c0,0,0,0,0,0c0,0,0,0,0,0.1c0,0.1,0,0.1,0,0.2c0,0,0,0.1,0.1,0.1c0,0,0,0,0,0c0,0,0,0,0.1,0c0,0,0.1,0,0.1,0c0,0,0,0,0.1,0
				c0.1,0,0.1-0.1,0.1-0.2c0,0,0,0,0-0.1C16.3,17.1,16.3,17.1,16.3,17C16.3,17,16.3,17,16.3,17z"/>
			<path class="st9" d="M16.9,16.6c-0.1,0.1-0.1,0.2,0,0.1C17,16.7,17,16.5,16.9,16.6z"/>
			<path class="st9" d="M17.6,16.1C17.6,16.1,17.6,16.1,17.6,16.1C17.6,16.1,17.6,16.1,17.6,16.1C17.6,16.1,17.5,16.1,17.6,16.1
				C17.5,16.1,17.5,16.1,17.6,16.1C17.5,16.1,17.5,16.1,17.6,16.1C17.5,16.1,17.5,16.1,17.6,16.1c-0.1,0-0.1,0-0.1,0c0,0,0,0,0,0
				c0,0,0,0,0,0c0,0,0,0,0,0c0,0,0,0,0,0c0,0,0,0,0,0c0,0,0,0,0,0c0,0,0,0,0,0c0,0,0,0,0,0c0,0,0,0,0,0c0,0,0,0,0,0c0,0,0,0,0,0
				c0,0,0,0,0,0c0,0,0,0,0,0c0,0,0,0,0,0c0,0,0,0,0,0C17.6,16.2,17.6,16.2,17.6,16.1C17.6,16.1,17.6,16.1,17.6,16.1
				C17.6,16.1,17.6,16.1,17.6,16.1z"/>
			<path class="st9" d="M18.9,16C18.9,16,18.9,16,18.9,16C18.9,16,18.9,16,18.9,16C18.9,16,18.9,16,18.9,16c-0.1,0-0.1,0-0.1,0
				c0,0-0.1,0-0.1,0c0,0-0.1,0.1-0.1,0.1c0,0,0,0,0,0.1c0,0,0,0,0,0.1c0,0,0,0,0,0c0,0,0,0,0,0c0,0,0,0,0.1,0c0,0,0,0,0,0
				c0,0,0,0.1,0,0.1c0,0,0,0,0,0c0,0,0,0,0,0c0,0,0,0,0,0c0,0,0,0,0,0c0,0,0,0,0,0c0,0,0,0,0,0c0,0,0,0,0-0.1c0,0,0-0.1,0-0.1
				C19,16.1,19,16.1,18.9,16C19,16,19,16,18.9,16z"/>
			<path class="st9" d="M20.8,15.3C20.8,15.3,20.8,15.3,20.8,15.3C20.7,15.3,20.7,15.3,20.8,15.3C20.7,15.3,20.7,15.3,20.8,15.3
				c-0.1,0-0.1,0-0.1,0.1c0,0,0,0,0,0c0,0,0,0,0,0c0,0,0,0,0,0c0,0,0,0,0,0c0,0,0,0,0,0c0,0,0,0,0,0c0,0,0,0,0,0c0,0,0,0,0,0
				c0,0,0,0,0,0c0,0,0,0,0,0C20.8,15.4,20.8,15.4,20.8,15.3C20.8,15.4,20.8,15.4,20.8,15.3C20.8,15.4,20.8,15.3,20.8,15.3
				C20.8,15.3,20.8,15.3,20.8,15.3z"/>
			<path class="st9" d="M23.7,14.9C23.7,14.9,23.6,14.9,23.7,14.9C23.6,14.9,23.6,14.9,23.7,14.9c-0.1,0-0.1,0-0.1,0c0,0,0,0,0,0
				c0,0,0,0-0.1,0c-0.1,0-0.1,0.1-0.2,0.1c0,0,0,0.1,0,0.1c0,0,0,0,0,0.1c0,0,0,0,0,0c0,0,0,0.1,0.1,0.1c0,0,0.1,0,0.2,0
				c0,0,0.1,0,0.1-0.1c0,0,0-0.1,0.1-0.1c0,0,0,0,0-0.1c0,0,0,0,0-0.1C23.7,15,23.7,14.9,23.7,14.9C23.7,14.9,23.7,14.9,23.7,14.9z"
				/>
			<path class="st9" d="M25.1,14.3c-0.1,0-0.1,0.1-0.1,0.2c0,0,0.1,0.1,0.1,0c0.1,0,0.1-0.1,0.1-0.2C25.2,14.2,25.1,14.2,25.1,14.3z
				"/>
			<path class="st9" d="M26.4,15.3C26.3,15.3,26.3,15.3,26.4,15.3C26.3,15.3,26.3,15.3,26.4,15.3C26.3,15.3,26.3,15.3,26.4,15.3
				c-0.1,0-0.1,0-0.1,0c0,0,0,0,0,0c0,0,0,0,0,0c0,0,0,0,0,0c0,0,0,0,0,0.1c0,0,0,0,0,0c0,0,0,0,0,0c0,0,0,0,0,0c0,0,0,0,0,0
				c0,0,0,0,0,0c0,0,0,0,0,0c0,0,0,0,0,0c0,0,0,0,0,0c0,0,0,0,0,0c0,0,0,0,0,0c0,0,0,0,0,0C26.4,15.4,26.4,15.4,26.4,15.3
				C26.4,15.4,26.4,15.3,26.4,15.3z"/>
			<path class="st9" d="M26.9,15.7C26.9,15.7,26.9,15.7,26.9,15.7C26.8,15.7,26.8,15.7,26.9,15.7c-0.1,0-0.1,0-0.2,0
				c0,0-0.1,0.1-0.1,0.1c0,0,0,0-0.1,0c-0.1,0.1-0.2,0.2-0.1,0.3c0,0,0,0.1,0.1,0.1c0,0,0,0,0,0c0,0,0,0,0.1,0c0.1,0,0.1,0,0.2-0.1
				c0,0,0.1,0,0.1-0.1c0,0,0.1-0.1,0.1-0.1C27,15.9,27,15.8,26.9,15.7C26.9,15.7,26.9,15.7,26.9,15.7z"/>
			<path class="st9" d="M27.9,14.7C27.9,14.7,27.8,14.7,27.9,14.7C27.8,14.7,27.8,14.7,27.9,14.7C27.8,14.7,27.8,14.7,27.9,14.7
				c-0.1,0-0.1,0-0.1,0c0,0,0,0,0,0c0,0,0,0,0,0c0,0,0,0,0,0c0,0,0,0,0,0c0,0,0,0,0,0c0,0,0,0,0,0c0,0,0,0,0,0l0,0c0,0,0,0,0,0
				c0,0,0,0,0,0c0,0,0,0,0,0c0,0,0,0,0,0c0,0,0,0,0,0c0,0,0,0,0,0c0,0,0,0,0,0c0,0,0,0,0,0c0,0,0,0,0,0c0,0,0,0,0,0c0,0,0,0,0,0
				C27.9,14.8,27.9,14.8,27.9,14.7C27.9,14.8,27.9,14.8,27.9,14.7C27.9,14.7,27.9,14.7,27.9,14.7C27.9,14.7,27.9,14.7,27.9,14.7z"/>
			<path class="st9" d="M17.1,7.2C17,7.1,17,7.1,17.1,7.2c-0.1,0-0.2-0.1-0.2-0.1c0,0-0.1,0-0.1,0.1c-0.1,0.1-0.1,0.2,0,0.3
				c0,0.1,0,0.1,0,0.1c0,0,0,0,0,0c0,0,0.1,0,0.1,0c0.1,0,0.1,0,0.2-0.1c0.1,0,0.1-0.1,0.1-0.2C17.2,7.3,17.2,7.2,17.1,7.2z"/>
			<path class="st9" d="M18.2,6.2c-0.1,0.1-0.1,0.2,0,0.2C18.3,6.3,18.3,6.2,18.2,6.2z"/>
			<path class="st9" d="M19.3,5.5c-0.1,0.1-0.1,0.2,0,0.2C19.4,5.6,19.4,5.4,19.3,5.5z"/>
			<path class="st9" d="M16.2,6.9C16.2,6.9,16.2,6.9,16.2,6.9C16.2,6.9,16.2,6.9,16.2,6.9C16.2,6.9,16.2,6.9,16.2,6.9
				C16.2,6.9,16.2,6.9,16.2,6.9C16.1,6.9,16.1,6.9,16.2,6.9C16.1,6.9,16.1,6.9,16.2,6.9c-0.1,0-0.1,0-0.1,0c0,0,0,0,0,0c0,0,0,0,0,0
				c0,0,0,0,0,0c0,0,0,0,0,0c0,0,0,0,0,0c0,0,0,0,0,0c0,0,0,0,0,0c0,0,0,0,0,0c0,0,0,0,0,0c0,0,0,0,0,0c0,0,0,0,0,0
				C16.2,7,16.2,7,16.2,6.9C16.2,7,16.2,7,16.2,6.9C16.2,7,16.2,7,16.2,6.9C16.2,6.9,16.2,6.9,16.2,6.9C16.2,6.9,16.2,6.9,16.2,6.9z
				"/>
			<path class="st9" d="M19.7,5.8c-0.1,0.1-0.1,0.2,0,0.1C19.8,5.9,19.8,5.8,19.7,5.8z"/>
			<path class="st9" d="M18.9,5c-0.1,0-0.1,0.2,0,0.1C19,5.1,19,5,18.9,5z"/>
			<g>
				<path class="st9" d="M17.8,5.6C17.8,5.6,17.8,5.6,17.8,5.6C17.8,5.6,17.8,5.6,17.8,5.6z"/>
				<path class="st9" d="M17.9,5.6C17.9,5.6,17.9,5.6,17.9,5.6C17.9,5.6,17.9,5.6,17.9,5.6C17.9,5.6,17.9,5.6,17.9,5.6
					C17.9,5.6,17.9,5.6,17.9,5.6C17.9,5.6,17.9,5.6,17.9,5.6c-0.1,0-0.1,0-0.1,0c0,0,0,0,0,0c0,0,0,0,0,0c0,0,0,0,0,0c0,0,0,0,0,0
					c0,0,0,0,0,0c0,0,0,0,0,0c0,0,0,0,0,0.1c0,0,0,0.1,0,0.1c0,0,0,0,0,0c0,0,0,0,0,0c0,0,0,0,0,0c0,0,0,0,0,0c0,0,0,0,0,0
					c0,0,0,0,0,0c0,0,0,0,0,0c0,0,0,0,0,0c0,0,0,0,0,0c0,0,0,0,0,0c0,0,0,0,0,0c0,0,0,0,0,0c0,0,0,0,0,0c0,0,0,0,0,0c0,0,0,0,0,0
					c0,0,0,0,0,0c0,0,0,0,0,0c0,0,0,0,0,0l0,0c0,0,0,0,0,0c0,0,0,0,0,0C17.9,5.7,18,5.7,17.9,5.6C18,5.7,18,5.7,17.9,5.6
					C18,5.6,18,5.6,17.9,5.6C18,5.6,18,5.6,17.9,5.6z"/>
			</g>
			<path class="st9" d="M19.3,6.6c-0.1,0.1-0.1,0.2,0,0.1C19.4,6.7,19.4,6.5,19.3,6.6z"/>
			<path class="st9" d="M20.6,4.9C20.6,4.9,20.6,4.9,20.6,4.9L20.6,4.9C20.6,4.9,20.6,4.9,20.6,4.9C20.6,4.9,20.6,4.9,20.6,4.9
				c-0.1,0-0.1,0-0.1,0c0,0,0,0,0,0c0,0,0,0,0,0.1c0,0,0,0,0,0c0,0,0,0,0,0.1c0,0,0,0,0,0c0,0,0,0,0,0c0,0,0,0,0,0c0,0,0,0,0,0
				c0,0,0,0,0,0c0,0,0,0,0,0c0,0,0,0,0,0c0,0,0,0,0,0c0,0,0,0,0,0c0,0,0,0,0,0C20.7,5,20.7,5,20.6,4.9C20.7,5,20.7,5,20.6,4.9
				L20.6,4.9C20.7,4.9,20.7,4.9,20.6,4.9C20.6,4.9,20.6,4.9,20.6,4.9C20.6,4.9,20.6,4.9,20.6,4.9z"/>
			<path class="st9" d="M21.4,5.8C21.3,5.8,21.3,5.8,21.4,5.8C21.3,5.8,21.3,5.8,21.4,5.8C21.3,5.8,21.3,5.8,21.4,5.8
				c-0.1-0.1-0.1-0.1-0.1-0.1c0,0,0,0-0.1,0c0,0,0,0,0,0.1c0,0,0,0,0,0c0,0,0,0,0,0c0,0,0,0,0,0c0,0,0,0,0,0c0,0,0,0,0,0
				c0,0,0,0,0,0c0,0,0,0,0,0c0,0,0,0,0,0c0,0,0,0,0,0c0,0,0,0,0,0c0,0,0,0,0,0c0,0,0,0,0,0c0,0,0,0,0,0c0,0,0,0,0,0c0,0,0,0,0,0
				c0,0,0,0,0,0c0,0,0,0,0,0C21.4,5.9,21.4,5.9,21.4,5.8C21.4,5.9,21.4,5.9,21.4,5.8C21.4,5.8,21.4,5.8,21.4,5.8z"/>
			<path class="st9" d="M27.3,9.4C27.3,9.4,27.2,9.3,27.3,9.4c0-0.1-0.1-0.1-0.2-0.1c0,0-0.1,0-0.1,0c0,0,0,0,0,0c0,0,0,0,0,0
				c0,0,0,0,0,0c0,0.1-0.1,0.1-0.1,0.2c0,0,0,0,0,0c0,0,0,0,0,0c0,0,0,0,0,0c0,0,0,0,0,0c0,0,0,0,0,0c0,0.1,0.1,0.1,0.2,0.1
				c0,0,0.1,0,0.1,0c0,0,0.1-0.1,0.1-0.1C27.2,9.5,27.2,9.5,27.3,9.4C27.3,9.4,27.3,9.4,27.3,9.4z"/>
			<path class="st9" d="M28.4,11.1C28.4,11.1,28.4,11.1,28.4,11.1C28.4,11.1,28.4,11.1,28.4,11.1C28.4,11.1,28.4,11.1,28.4,11.1
				C28.4,11.1,28.4,11.1,28.4,11.1C28.4,11.1,28.4,11.1,28.4,11.1C28.4,11.1,28.4,11.1,28.4,11.1C28.3,11.1,28.3,11.1,28.4,11.1
				c-0.1,0-0.1,0-0.1,0c0,0,0,0,0,0c0,0,0,0,0,0c0,0,0,0,0,0c0,0,0,0,0,0c0,0,0,0,0,0c0,0,0,0,0,0c0,0,0,0,0,0c0,0,0,0,0,0
				c0,0,0,0,0,0c0,0,0,0,0,0c0,0,0,0,0,0c0,0,0,0,0,0c0,0,0,0,0,0c0,0,0,0,0,0c0,0,0,0,0,0c0,0,0,0,0,0c0,0,0,0,0,0l0,0
				C28.4,11.2,28.4,11.2,28.4,11.1C28.4,11.2,28.4,11.2,28.4,11.1C28.4,11.1,28.4,11.1,28.4,11.1C28.4,11.1,28.4,11.1,28.4,11.1z"/>
			<path class="st9" d="M27.6,12.3C27.6,12.3,27.6,12.3,27.6,12.3C27.6,12.3,27.6,12.3,27.6,12.3C27.6,12.3,27.6,12.3,27.6,12.3
				C27.6,12.3,27.6,12.3,27.6,12.3C27.6,12.3,27.6,12.3,27.6,12.3C27.5,12.3,27.5,12.3,27.6,12.3C27.5,12.3,27.5,12.3,27.6,12.3
				c-0.1,0-0.1,0-0.1,0c0,0,0,0,0,0c0,0,0,0,0,0c0,0,0,0,0,0c0,0,0,0,0,0c0,0,0,0,0,0c0,0,0,0,0,0c0,0,0,0,0,0c0,0-0.1,0-0.1,0.1
				c0,0,0,0,0,0c0,0,0,0.1,0,0.1c0,0,0,0.1,0,0.1c0,0,0,0,0.1,0c0,0,0,0,0.1,0c0,0,0,0,0.1,0c0,0,0,0,0.1,0c0,0,0.1-0.1,0.1-0.1
				c0,0,0,0,0,0C27.6,12.5,27.6,12.4,27.6,12.3C27.6,12.4,27.6,12.4,27.6,12.3C27.6,12.3,27.6,12.3,27.6,12.3z"/>
			<path class="st9" d="M29.1,11.7c-0.1,0-0.1,0.1-0.1,0.1c0,0,0.1,0.1,0.1,0c0.1,0,0.1-0.1,0.1-0.1C29.2,11.7,29.2,11.7,29.1,11.7z
				"/>
			<path class="st9" d="M29.4,13.3C29.4,13.3,29.4,13.3,29.4,13.3C29.4,13.3,29.4,13.3,29.4,13.3C29.4,13.3,29.4,13.3,29.4,13.3
				C29.4,13.3,29.4,13.3,29.4,13.3C29.4,13.3,29.4,13.3,29.4,13.3C29.4,13.3,29.4,13.3,29.4,13.3L29.4,13.3
				C29.4,13.3,29.4,13.3,29.4,13.3c-0.1,0-0.1,0-0.1,0c0,0,0,0,0,0c0,0,0,0,0,0c0,0,0,0,0,0c0,0,0,0,0,0c0,0,0,0,0,0c0,0,0,0,0,0
				c0,0,0,0,0,0c0,0,0,0,0,0c0,0,0,0,0,0c0,0,0,0,0,0c0,0,0,0,0,0c0,0,0,0,0,0c0,0,0,0,0,0c0,0,0,0,0,0c0,0,0,0,0,0
				C29.4,13.4,29.4,13.4,29.4,13.3C29.5,13.4,29.5,13.4,29.4,13.3C29.5,13.4,29.5,13.4,29.4,13.3C29.5,13.3,29.5,13.3,29.4,13.3z"/>
			<path class="st9" d="M30,10.5C30,10.5,30,10.5,30,10.5C30,10.5,30,10.5,30,10.5c-0.1,0-0.1,0-0.1,0c0,0,0,0,0,0c0,0,0,0,0,0
				c0,0,0,0,0,0c0,0,0,0,0,0c0,0,0,0,0,0c0,0,0,0,0,0c0,0,0,0,0,0c0,0,0,0,0,0l0,0c0,0,0,0,0,0c0,0,0,0,0,0c0,0,0,0,0-0.1
				C30,10.6,30.1,10.6,30,10.5C30.1,10.6,30.1,10.6,30,10.5L30,10.5z"/>
			<path class="st9" d="M29.2,12.5c-0.1,0.1-0.1,0.2,0,0.1C29.3,12.5,29.3,12.4,29.2,12.5z"/>
			<path class="st9" d="M25.4,19.1c0,0-0.1,0-0.1,0c-0.1,0.1-0.1,0.2-0.1,0.3c0,0.1,0,0.2,0.1,0.2c0,0,0.1,0,0.1,0
				c0.1,0,0.1-0.1,0.1-0.1c0,0,0-0.1,0-0.1c0,0,0,0,0-0.1c0,0,0-0.1,0-0.1C25.5,19.2,25.5,19.1,25.4,19.1z"/>
			<path class="st9" d="M22.4,21.7C22.4,21.7,22.4,21.7,22.4,21.7C22.4,21.7,22.4,21.7,22.4,21.7C22.4,21.7,22.4,21.7,22.4,21.7
				C22.4,21.7,22.4,21.7,22.4,21.7C22.4,21.7,22.4,21.7,22.4,21.7C22.4,21.7,22.4,21.7,22.4,21.7c-0.1,0-0.1,0-0.1,0c0,0,0,0,0,0
				c0,0,0,0,0,0c0,0,0,0,0,0c0,0,0,0,0,0c0,0,0,0,0,0c0,0,0,0,0,0c0,0,0,0,0,0c0,0,0,0,0,0c0,0,0,0,0,0c0,0,0,0,0,0c0,0,0,0,0,0
				c0,0,0,0,0,0c0,0,0,0,0,0c0,0,0,0,0,0c0,0,0,0,0,0c0,0,0,0,0,0c0,0,0,0,0,0c0,0,0,0,0,0c0,0,0,0,0,0c0,0,0,0,0,0c0,0,0,0,0,0
				c0,0,0,0,0,0c0,0,0,0,0,0c0,0,0,0,0,0c0,0,0,0,0,0c0,0,0,0,0,0c0,0,0,0,0,0c0,0,0,0,0,0c0,0,0,0,0,0c0,0,0,0,0,0c0,0,0,0,0,0
				c0,0,0,0,0,0C22.4,21.8,22.4,21.8,22.4,21.7C22.4,21.8,22.4,21.8,22.4,21.7C22.4,21.8,22.4,21.8,22.4,21.7
				C22.4,21.8,22.4,21.8,22.4,21.7C22.4,21.7,22.4,21.7,22.4,21.7C22.4,21.7,22.4,21.7,22.4,21.7C22.4,21.7,22.4,21.7,22.4,21.7z"/>
			<path class="st9" d="M23.6,21.4c-0.1,0-0.1,0.1-0.1,0.1c0,0,0.1,0.1,0.1,0c0.1,0,0.1-0.1,0.1-0.1C23.7,21.4,23.7,21.4,23.6,21.4z
				"/>
			<path class="st9" d="M24.2,20.1c-0.1,0.1-0.1,0.2,0,0.2C24.3,20.2,24.3,20,24.2,20.1z"/>
			<path class="st9" d="M26.3,19.4c-0.1,0-0.1,0.1-0.1,0.1c0,0,0.1,0.1,0.1,0c0.1,0,0.1-0.1,0.1-0.1C26.4,19.4,26.4,19.4,26.3,19.4z
				"/>
			<path class="st9" d="M26.6,18.3C26.6,18.3,26.6,18.3,26.6,18.3C26.6,18.3,26.6,18.3,26.6,18.3C26.6,18.3,26.5,18.3,26.6,18.3
				C26.5,18.3,26.5,18.3,26.6,18.3C26.5,18.3,26.5,18.3,26.6,18.3C26.5,18.3,26.5,18.3,26.6,18.3C26.5,18.3,26.5,18.3,26.6,18.3
				C26.5,18.3,26.5,18.3,26.6,18.3C26.5,18.3,26.5,18.3,26.6,18.3C26.5,18.3,26.5,18.3,26.6,18.3c-0.1,0-0.1,0-0.1,0c0,0,0,0,0,0
				c0,0,0,0,0,0c0,0,0,0,0,0c0,0,0,0,0,0c0,0,0,0,0,0c0,0,0,0,0,0c0,0,0,0,0,0c0,0,0,0,0,0c0,0,0,0,0,0c0,0,0,0,0,0c0,0,0,0,0,0
				c0,0,0,0,0,0c0,0,0,0,0,0c0,0,0,0,0,0c0,0,0,0,0,0c0,0,0,0,0,0c0,0,0,0,0,0C26.6,18.4,26.6,18.4,26.6,18.3
				C26.6,18.4,26.6,18.4,26.6,18.3C26.6,18.4,26.6,18.4,26.6,18.3C26.6,18.3,26.6,18.3,26.6,18.3z"/>
			<path class="st9" d="M25.6,17.8c-0.1,0-0.1,0.1-0.1,0.1c0,0,0.1,0.1,0.1,0c0.1,0,0.1-0.1,0.1-0.1C25.7,17.8,25.6,17.8,25.6,17.8z
				"/>
			<path class="st9" d="M18.2,24.5C18.2,24.5,18.2,24.5,18.2,24.5C18.2,24.5,18.2,24.5,18.2,24.5C18.2,24.5,18.1,24.5,18.2,24.5
				c-0.1,0-0.1,0-0.1,0c0,0,0,0,0,0c0,0,0,0,0,0c0,0,0,0,0,0c0,0-0.1,0-0.1,0.1c0,0,0,0,0,0c0,0,0,0,0,0c0,0,0,0,0,0c0,0,0,0,0,0
				c0,0,0,0,0,0.1c0,0,0,0,0,0.1c0,0,0,0,0,0c0,0,0,0,0,0c0,0,0,0,0,0c0,0,0,0,0,0l0,0c0,0,0,0,0,0c0,0,0,0,0,0c0,0,0,0,0,0
				c0,0,0,0,0,0c0,0,0,0,0,0c0,0,0,0,0,0c0,0,0,0,0,0c0,0,0,0,0,0c0,0,0,0,0,0c0,0,0,0,0,0c0,0,0,0,0,0c0,0,0,0,0.1,0c0,0,0,0,0,0
				c0,0,0,0,0,0c0,0,0,0,0,0c0,0,0,0,0,0c0,0,0,0,0,0c0,0,0,0,0-0.1c0,0,0,0,0,0C18.3,24.6,18.3,24.6,18.2,24.5
				C18.3,24.6,18.3,24.6,18.2,24.5C18.2,24.6,18.2,24.5,18.2,24.5C18.2,24.5,18.2,24.5,18.2,24.5z"/>
			<path class="st9" d="M19.7,24c-0.1,0.1-0.1,0.2,0,0.2C19.8,24.1,19.8,24,19.7,24z"/>
			<path class="st9" d="M15.5,26.3c-0.1,0-0.1,0.2,0,0.1C15.6,26.3,15.6,26.2,15.5,26.3z"/>
			<path class="st9" d="M14.5,26.6C14.5,26.6,14.5,26.6,14.5,26.6C14.5,26.5,14.5,26.5,14.5,26.6C14.4,26.5,14.4,26.5,14.5,26.6
				c-0.1-0.1-0.1-0.1-0.1-0.1c0,0-0.1,0-0.1,0c0,0,0,0,0,0c0,0,0,0,0,0c0,0,0,0,0,0c0,0,0,0,0,0c0,0,0,0,0,0c0,0,0,0,0,0
				c0,0,0,0,0,0c0,0,0,0,0,0c0,0,0,0,0,0C14.5,26.7,14.5,26.7,14.5,26.6C14.5,26.7,14.5,26.6,14.5,26.6
				C14.5,26.6,14.5,26.6,14.5,26.6z"/>
			<path class="st9" d="M14.2,26.6C14.2,26.6,14.2,26.6,14.2,26.6C14.2,26.6,14.2,26.6,14.2,26.6C14.2,26.5,14.2,26.5,14.2,26.6
				C14.1,26.5,14.1,26.5,14.2,26.6C14.1,26.5,14.1,26.5,14.2,26.6c-0.1,0-0.1,0-0.1,0c0,0,0,0,0,0c0,0,0,0,0,0c0,0,0,0,0,0
				c0,0,0,0,0,0c0,0,0,0,0,0c0,0,0,0,0,0c0,0,0,0,0,0c0,0,0,0,0,0c0,0,0,0,0,0c0,0,0,0,0,0c0,0,0,0,0,0c0,0,0,0,0,0
				C14.2,26.7,14.2,26.7,14.2,26.6C14.2,26.6,14.2,26.6,14.2,26.6C14.2,26.6,14.2,26.6,14.2,26.6C14.2,26.6,14.2,26.6,14.2,26.6
				C14.2,26.6,14.2,26.6,14.2,26.6z"/>
			<path class="st9" d="M14.8,25.5C14.8,25.5,14.8,25.5,14.8,25.5C14.8,25.5,14.8,25.5,14.8,25.5C14.7,25.5,14.7,25.5,14.8,25.5
				C14.7,25.5,14.7,25.5,14.8,25.5C14.7,25.5,14.7,25.5,14.8,25.5C14.7,25.5,14.7,25.5,14.8,25.5C14.7,25.5,14.7,25.5,14.8,25.5
				C14.7,25.5,14.7,25.5,14.8,25.5c-0.1,0-0.1,0-0.1,0c0,0,0,0,0,0c0,0,0,0,0,0c0,0,0,0,0,0c0,0,0,0,0,0c0,0,0,0,0,0c0,0,0,0,0,0
				c0,0,0,0,0,0c0,0,0,0,0,0c0,0,0,0,0,0c0,0,0,0,0,0c0,0,0,0,0,0c0,0,0,0,0,0c0,0,0,0,0,0C14.7,25.6,14.8,25.6,14.8,25.5
				C14.8,25.6,14.8,25.6,14.8,25.5C14.8,25.6,14.8,25.6,14.8,25.5C14.8,25.5,14.8,25.5,14.8,25.5z"/>
			<path class="st9" d="M14.1,21.2c-0.1,0-0.1,0.2,0,0.1C14.2,21.3,14.2,21.1,14.1,21.2z"/>
			<path class="st9" d="M13,22.9C13,22.9,13,22.9,13,22.9c-0.1,0-0.1,0.1-0.1,0.1c0,0,0,0.1,0,0.1c0,0,0,0,0,0c0,0,0,0,0.1,0
				c0,0,0,0,0.1-0.1c0,0,0,0,0-0.1C13.1,23,13.1,23,13,22.9C13.1,22.9,13.1,22.9,13,22.9z"/>
			<path class="st9" d="M15.2,20.2c-0.1,0-0.1,0.1-0.1,0.1c0,0,0.1,0.1,0.1,0c0.1,0,0.1-0.1,0.1-0.1C15.3,20.2,15.3,20.2,15.2,20.2z
				"/>
			<path class="st9" d="M15.9,19.7c-0.1,0-0.1,0-0.2,0c0,0,0,0,0,0c0,0,0,0-0.1,0c0,0-0.1,0.1-0.1,0.1c0,0,0,0.1-0.1,0.1
				c0,0,0,0.1,0,0.1c0,0,0,0,0,0c0,0,0,0,0,0c0,0,0,0,0,0c0,0,0,0,0,0c0,0,0,0,0,0.1c0,0,0,0,0,0c0,0,0,0,0,0c0,0,0,0,0,0
				c0,0,0,0,0,0c0,0,0,0,0,0c0,0,0.1,0,0.1-0.1c0,0,0.1-0.1,0.1-0.1c0,0,0,0,0,0c0,0,0,0,0,0c0,0,0,0,0-0.1
				C15.9,19.8,15.9,19.7,15.9,19.7C15.9,19.7,15.9,19.7,15.9,19.7z"/>
			<path class="st9" d="M19.7,23.6c-0.1,0-0.1,0-0.2,0c0,0,0,0,0,0c0,0,0,0-0.1,0c0,0-0.1,0.1-0.1,0.1c0,0,0,0.1-0.1,0.1
				c0,0,0,0.1,0,0.1c0,0,0,0,0,0c0,0,0,0,0,0c0,0,0,0,0,0c0,0,0,0,0,0c0,0,0,0,0,0.1c0,0,0,0,0,0c0,0,0,0,0,0c0,0,0,0,0,0
				c0,0,0,0,0,0c0,0,0,0,0,0c0,0,0.1,0,0.1-0.1c0,0,0.1-0.1,0.1-0.1c0,0,0,0,0,0c0,0,0,0,0,0c0,0,0,0,0-0.1
				C19.7,23.7,19.7,23.6,19.7,23.6C19.7,23.6,19.7,23.6,19.7,23.6z"/>
			<path class="st9" d="M15,19.1c-0.1,0-0.1,0.1-0.1,0.1c0,0,0.1,0.1,0.1,0c0.1,0,0.1-0.1,0.1-0.1C15.1,19.1,15.1,19.1,15,19.1z"/>
			<path class="st9" d="M16.3,18.7c-0.1,0-0.1,0.1-0.1,0.1c0,0,0.1,0.1,0.1,0c0.1,0,0.1-0.1,0.1-0.1C16.4,18.7,16.4,18.7,16.3,18.7z
				"/>
			<path class="st9" d="M12,16.8C12,16.8,12,16.8,12,16.8C11.9,16.8,11.9,16.8,12,16.8C11.9,16.8,11.9,16.8,12,16.8
				c-0.1,0-0.1,0-0.1,0c0,0,0,0,0,0c0,0,0,0,0,0c0,0,0,0,0,0c0,0,0,0,0,0l0,0c0,0,0,0,0,0c0,0,0,0,0,0c0,0,0,0,0,0c0,0,0,0,0,0
				c0,0,0,0,0,0C12,17,12,16.9,12,16.8C12,16.9,12,16.9,12,16.8C12,16.9,12,16.9,12,16.8C12,16.9,12,16.8,12,16.8z"/>
			<path class="st9" d="M11.9,15.8c-0.1,0.1-0.1,0.2,0,0.2C12,15.9,12,15.7,11.9,15.8z"/>
			<path class="st9" d="M11.3,15.8C11.3,15.8,11.3,15.8,11.3,15.8C11.3,15.8,11.3,15.8,11.3,15.8C11.3,15.8,11.3,15.8,11.3,15.8
				C11.2,15.8,11.2,15.8,11.3,15.8c-0.1,0-0.1,0-0.1,0.1c0,0,0,0.1-0.1,0.1c0,0,0,0,0,0c0,0,0,0,0,0c0,0,0,0,0,0c0,0,0,0,0,0
				c0,0,0,0,0,0c0,0,0,0,0,0c0,0,0,0,0,0c0,0,0,0,0,0C11.3,15.9,11.3,15.9,11.3,15.8C11.3,15.8,11.3,15.8,11.3,15.8
				C11.3,15.8,11.3,15.8,11.3,15.8C11.3,15.8,11.3,15.8,11.3,15.8z"/>
			<path class="st9" d="M17.1,13.9C17,13.9,17,13.9,17.1,13.9C17,13.9,17,13.9,17.1,13.9C17,13.9,17,13.9,17.1,13.9
				c-0.1,0-0.1,0-0.1,0c0,0,0,0,0,0c0,0,0,0,0,0c0,0,0,0,0,0c0,0,0,0,0,0c0,0,0,0,0,0c0,0,0,0,0,0c0,0,0,0,0,0c0,0,0,0,0,0.1
				c0,0,0,0,0,0c0,0,0,0,0,0c0,0,0,0,0,0.1c0,0,0,0,0,0c0,0,0,0,0,0c0,0,0,0,0,0c0,0,0,0,0,0c0,0,0,0,0,0c0,0,0,0,0,0c0,0,0,0,0,0
				c0,0,0,0,0,0c0,0,0.1,0,0.1-0.1c0,0,0,0,0,0c0,0,0,0,0,0C17,14,17,14,17.1,13.9C17.1,14,17.1,13.9,17.1,13.9
				C17.1,13.9,17.1,13.9,17.1,13.9z"/>
			<path class="st9" d="M14.6,11.4c0,0-0.1,0-0.1,0c0,0,0,0,0,0c0,0,0,0,0,0c0,0,0,0,0,0c0,0,0,0-0.1,0c-0.1,0-0.1,0.1-0.1,0.1
				c0,0,0,0.1,0,0.1c0,0,0,0,0,0c0,0,0,0,0,0c0,0,0,0,0,0c0,0,0,0,0,0c0,0,0,0,0,0c0,0,0,0,0,0c0,0,0,0,0,0c0,0,0,0,0,0c0,0,0,0,0,0
				c0,0,0,0,0,0c0,0,0,0,0,0c0,0,0,0,0,0c0,0,0.1,0,0.1,0c0.1,0,0.1-0.1,0.1-0.2c0,0,0,0,0,0c0,0,0,0,0,0
				C14.6,11.5,14.7,11.4,14.6,11.4z"/>
			<path class="st9" d="M15.1,14.2c-0.1,0-0.1,0.1-0.1,0.1c0,0,0.1,0.1,0.1,0c0.1,0,0.1-0.1,0.1-0.1C15.2,14.2,15.2,14.2,15.1,14.2z
				"/>
			<path class="st9" d="M16.6,14.8c-0.1,0-0.1,0.1-0.1,0.1c0,0,0.1,0.1,0.1,0c0.1,0,0.1-0.1,0.1-0.1C16.7,14.8,16.6,14.7,16.6,14.8z
				"/>
			<path class="st9" d="M22.4,15.1c-0.1,0-0.1,0.1-0.1,0.2c0,0,0.1,0.1,0.1,0c0.1,0,0.1-0.1,0.1-0.2C22.5,15.1,22.5,15.1,22.4,15.1z
				"/>
			<path class="st9" d="M27,14.6c-0.1,0-0.1,0.2,0,0.1C27.1,14.7,27.1,14.5,27,14.6z"/>
			<path class="st9" d="M26.4,14.2C26.4,14.2,26.4,14.2,26.4,14.2C26.4,14.2,26.3,14.2,26.4,14.2C26.3,14.2,26.3,14.2,26.4,14.2
				C26.3,14.2,26.3,14.2,26.4,14.2C26.3,14.2,26.3,14.2,26.4,14.2C26.3,14.2,26.3,14.2,26.4,14.2c-0.1,0-0.1,0-0.1,0c0,0,0,0,0,0
				c0,0,0,0,0,0c0,0,0,0,0,0c0,0,0,0,0,0c0,0,0,0,0,0c0,0,0,0,0,0c0,0,0,0,0,0c0,0,0,0,0,0c0,0,0,0,0,0c0,0,0,0,0,0c0,0,0,0,0,0
				c0,0,0,0,0,0c0,0,0,0,0,0c0,0,0,0,0,0c0,0,0,0,0,0c0,0,0,0,0,0c0,0,0,0,0,0c0,0,0,0,0,0c0,0,0,0,0,0c0,0,0,0,0.1,0c0,0,0,0,0,0
				c0,0,0,0,0,0c0,0,0,0,0,0c0,0,0,0,0,0c0,0,0,0,0,0c0,0,0,0,0,0c0,0,0,0,0,0c0,0,0,0,0,0c0,0,0,0,0,0c0,0,0,0,0,0c0,0,0,0,0,0
				C26.4,14.3,26.4,14.2,26.4,14.2C26.4,14.2,26.4,14.2,26.4,14.2C26.4,14.2,26.4,14.2,26.4,14.2C26.4,14.2,26.4,14.2,26.4,14.2z"/>
			<path class="st9" d="M15.6,25.6C15.6,25.6,15.6,25.6,15.6,25.6C15.6,25.6,15.6,25.6,15.6,25.6C15.6,25.6,15.6,25.5,15.6,25.6
				C15.5,25.5,15.5,25.5,15.6,25.6C15.5,25.5,15.5,25.5,15.6,25.6c-0.1,0-0.1,0-0.1,0c0,0,0,0,0,0c0,0,0,0,0,0c0,0,0,0,0,0
				c0,0,0,0.1,0,0.1c0,0,0,0,0,0c0,0,0,0,0,0c0,0,0,0,0,0c0,0,0,0,0,0c0,0,0,0,0,0c0,0,0,0,0,0c0,0,0,0,0,0c0,0,0,0,0,0c0,0,0,0,0,0
				c0,0,0,0,0,0C15.5,25.7,15.5,25.7,15.6,25.6c-0.1,0.1-0.1,0.1-0.1,0.1C15.5,25.7,15.5,25.7,15.6,25.6
				C15.6,25.7,15.6,25.7,15.6,25.6C15.6,25.7,15.6,25.7,15.6,25.6C15.6,25.7,15.6,25.6,15.6,25.6C15.6,25.6,15.6,25.6,15.6,25.6
				C15.6,25.6,15.6,25.6,15.6,25.6C15.6,25.6,15.6,25.6,15.6,25.6z"/>
			<path class="st9" d="M20.8,23C20.8,23,20.8,23,20.8,23C20.8,23,20.8,23,20.8,23C20.8,22.9,20.8,22.9,20.8,23
				C20.8,22.9,20.8,22.9,20.8,23C20.8,22.9,20.8,22.9,20.8,23c-0.1,0-0.1,0-0.1,0c0,0,0,0,0,0c0,0,0,0,0,0c0,0,0,0,0,0c0,0,0,0,0,0
				c0,0,0,0,0,0c0,0,0,0,0,0c0,0,0,0,0,0c0,0,0,0,0,0c0,0,0,0,0,0c0,0,0,0,0,0c0,0,0,0,0,0c0,0,0,0,0,0c0,0,0,0,0.1,0c0,0,0,0,0,0
				c0,0,0,0,0-0.1c0,0,0,0,0-0.1C20.8,23.1,20.8,23.1,20.8,23C20.8,23,20.8,23,20.8,23C20.8,23,20.8,23,20.8,23
				C20.8,23,20.9,23,20.8,23z"/>
			<path class="st9" d="M23,21.1C23,21.1,23,21.1,23,21.1C23,21.1,23,21.1,23,21.1C23,21.1,23,21.1,23,21.1C23,21.1,23,21.1,23,21.1
				C23,21.1,23,21.1,23,21.1C23,21.1,23,21.1,23,21.1C23,21.1,22.9,21.1,23,21.1c-0.1,0-0.1,0-0.1,0c0,0,0,0,0,0c0,0,0,0,0,0
				c0,0,0,0,0,0c0,0,0,0,0,0c0,0,0,0,0,0c0,0,0,0,0,0c0,0,0,0,0,0c0,0,0,0,0,0c0,0,0,0,0,0c0,0,0,0,0,0c0,0,0,0,0,0c0,0,0,0,0,0
				c0,0,0,0,0,0c0,0,0,0,0,0c0,0,0,0,0,0c0,0,0,0,0.1,0c0,0,0,0,0,0c0,0,0,0,0,0c0,0,0,0,0,0C23,21.2,23,21.2,23,21.1
				C23,21.2,23,21.2,23,21.1C23,21.2,23,21.2,23,21.1C23,21.2,23,21.2,23,21.1C23,21.1,23,21.1,23,21.1C23,21.1,23,21.1,23,21.1z"/>
			<path class="st9" d="M24.2,21.1c-0.1,0-0.1,0.2,0,0.1C24.3,21.2,24.3,21,24.2,21.1z"/>
			<g>
				<path class="st9" d="M22.5,23.1C22.5,23.1,22.5,23.1,22.5,23.1C22.5,23.1,22.5,23.1,22.5,23.1z"/>
			</g>
			<path class="st9" d="M21,22.3c-0.1,0-0.1,0.2,0,0.1C21.1,22.3,21.1,22.2,21,22.3z"/>
			<path class="st9" d="M16.7,24.5C16.7,24.5,16.7,24.5,16.7,24.5C16.7,24.5,16.7,24.5,16.7,24.5C16.6,24.5,16.6,24.5,16.7,24.5
				c-0.1,0-0.1,0-0.1,0c0,0,0,0,0,0c0,0,0,0,0,0c0,0,0,0,0,0c0,0,0,0,0,0.1c0,0,0,0,0,0c0,0,0,0,0,0c0,0,0,0,0,0c0,0,0,0,0,0
				c0,0,0,0,0,0c0,0,0,0,0,0c0,0,0,0,0,0c0,0,0,0,0,0c0,0,0,0,0,0c0,0,0,0,0,0c0,0,0,0,0,0C16.7,24.7,16.7,24.6,16.7,24.5
				C16.7,24.6,16.7,24.6,16.7,24.5C16.7,24.6,16.7,24.6,16.7,24.5C16.7,24.6,16.7,24.6,16.7,24.5z"/>
			<path class="st9" d="M25.3,15.3C25.3,15.3,25.2,15.3,25.3,15.3c-0.1,0-0.2,0-0.2,0c0,0,0,0,0,0c0,0,0,0,0,0c0,0,0,0,0,0
				c0,0,0,0,0,0c0,0,0,0,0,0c0,0,0,0,0,0.1c0,0,0,0,0,0.1c0,0,0,0,0.1,0.1c0,0,0,0,0,0c0,0,0,0,0.1,0l0,0c0,0,0,0,0,0
				c0,0,0,0,0.1-0.1c0,0,0,0,0-0.1c0,0,0,0,0,0c0,0,0,0,0,0C25.3,15.4,25.3,15.4,25.3,15.3C25.3,15.4,25.3,15.4,25.3,15.3
				C25.3,15.4,25.3,15.4,25.3,15.3C25.3,15.4,25.3,15.4,25.3,15.3z"/>
			<path class="st9" d="M25.4,16.1c-0.1,0.1-0.1,0.2,0,0.1C25.5,16.2,25.6,16.1,25.4,16.1z"/>
			<path class="st9" d="M27.7,17.7C27.7,17.7,27.7,17.7,27.7,17.7L27.7,17.7C27.7,17.7,27.7,17.7,27.7,17.7
				C27.7,17.7,27.7,17.7,27.7,17.7C27.7,17.7,27.7,17.7,27.7,17.7C27.7,17.7,27.7,17.7,27.7,17.7C27.7,17.6,27.7,17.6,27.7,17.7
				c-0.1-0.1-0.1-0.1-0.1-0.1c0,0,0,0,0,0c0,0,0,0-0.1,0.1c0,0,0,0,0,0c0,0,0,0,0,0c0,0,0,0,0,0c0,0,0,0,0,0c0,0,0,0,0,0
				c0,0,0,0,0,0c0,0,0,0,0,0c0,0,0,0,0,0c0,0,0,0,0,0c0,0,0,0,0,0c0,0,0,0,0,0c0,0,0,0,0,0c0,0,0,0,0,0c0,0,0,0,0,0
				C27.7,17.8,27.7,17.8,27.7,17.7C27.7,17.8,27.7,17.8,27.7,17.7C27.7,17.7,27.7,17.7,27.7,17.7z"/>
			<path class="st9" d="M28.3,12.8C28.3,12.8,28.3,12.8,28.3,12.8C28.3,12.8,28.3,12.8,28.3,12.8C28.3,12.8,28.3,12.8,28.3,12.8
				C28.3,12.8,28.3,12.8,28.3,12.8c-0.1,0-0.1,0-0.1,0c0,0,0,0,0,0c0,0,0,0,0,0c0,0,0,0,0,0c0,0,0,0,0,0c0,0,0,0,0,0c0,0,0,0,0,0
				c0,0,0,0,0,0c0,0,0,0,0,0c0,0,0,0,0,0c0,0,0,0,0,0c0,0,0,0,0,0c0,0,0,0,0,0c0,0,0,0,0,0c0,0,0,0,0,0c0,0,0,0,0,0c0,0,0,0,0,0
				c0,0,0,0,0,0c0,0,0,0,0,0C28.3,12.9,28.3,12.9,28.3,12.8C28.3,12.9,28.3,12.9,28.3,12.8C28.3,12.9,28.4,12.9,28.3,12.8
				C28.4,12.9,28.4,12.9,28.3,12.8C28.4,12.9,28.4,12.9,28.3,12.8C28.4,12.9,28.4,12.9,28.3,12.8C28.4,12.9,28.4,12.9,28.3,12.8
				C28.4,12.8,28.3,12.8,28.3,12.8z"/>
			<path class="st9" d="M29.4,8.3C29.4,8.3,29.4,8.3,29.4,8.3C29.4,8.3,29.3,8.3,29.4,8.3c-0.1,0-0.1,0-0.1,0c0,0,0,0,0,0
				c0,0-0.1,0-0.1,0.1c0,0-0.1,0.1-0.1,0.1c0,0,0,0,0,0c0,0,0,0,0,0c0,0,0,0,0,0.1c0,0,0,0,0,0c0,0,0,0,0,0c0,0,0,0,0,0c0,0,0,0,0,0
				c0,0,0,0,0,0c0,0,0,0,0.1,0c0,0,0.1,0,0.1-0.1c0,0,0-0.1,0.1-0.1c0,0,0,0,0-0.1C29.4,8.4,29.4,8.4,29.4,8.3
				C29.4,8.3,29.4,8.3,29.4,8.3C29.4,8.3,29.4,8.3,29.4,8.3C29.4,8.3,29.4,8.3,29.4,8.3z"/>
			<path class="st9" d="M26.9,10.7C26.9,10.7,26.9,10.7,26.9,10.7C26.9,10.7,26.9,10.7,26.9,10.7C26.9,10.7,26.9,10.7,26.9,10.7
				C26.8,10.7,26.8,10.7,26.9,10.7c-0.1,0-0.1,0.1-0.1,0.1c0,0,0,0,0,0.1c0,0,0,0,0,0c0,0,0,0,0,0c0,0,0,0,0,0c0,0,0,0,0,0l0,0
				c0,0,0,0,0,0c0,0,0,0,0,0c0,0,0,0,0,0C26.9,10.8,26.9,10.8,26.9,10.7C26.9,10.8,26.9,10.8,26.9,10.7
				C26.9,10.7,26.9,10.7,26.9,10.7C26.9,10.7,26.9,10.7,26.9,10.7z"/>
			<path class="st9" d="M26.1,7.4C26.1,7.3,26.1,7.3,26.1,7.4c-0.1,0-0.1,0-0.1,0c0,0,0,0,0,0c-0.1,0-0.1,0.1-0.2,0.1
				c0,0,0,0.1,0,0.1c0,0,0,0,0,0c0,0,0,0,0,0c0,0.1,0,0.1,0.1,0.1c0,0,0,0,0,0c0,0,0,0,0,0c0,0,0.1,0,0.1-0.1c0,0,0,0,0-0.1
				c0,0,0-0.1,0-0.1c0,0,0,0,0-0.1c0,0,0,0,0,0C26.1,7.5,26.1,7.4,26.1,7.4C26.1,7.4,26.1,7.4,26.1,7.4z"/>
			<path class="st9" d="M26.8,5.3c-0.1,0-0.1,0.2,0,0.1C26.9,5.4,26.9,5.2,26.8,5.3z"/>
			<path class="st9" d="M19.9,15.6C19.9,15.6,19.8,15.6,19.9,15.6C19.8,15.6,19.8,15.6,19.9,15.6C19.8,15.6,19.8,15.6,19.9,15.6
				C19.8,15.6,19.8,15.6,19.9,15.6c-0.1,0-0.1,0-0.1,0c0,0,0,0,0,0c0,0,0,0,0,0c0,0,0,0,0,0c0,0,0,0,0,0c0,0,0,0,0,0c0,0,0,0,0,0
				c0,0,0,0,0,0c0,0,0,0,0,0c0,0,0,0,0,0c0,0,0,0,0,0c0,0,0,0-0.1,0.1c0,0,0,0,0,0.1c0,0,0,0,0,0c0,0,0,0,0,0c0,0,0,0,0,0
				c0,0,0,0,0,0c0,0,0,0,0,0c0,0,0,0,0,0c0,0,0,0,0,0c0,0,0,0,0,0c0,0,0,0,0,0c0,0,0,0,0,0C19.8,15.7,19.8,15.7,19.9,15.6
				C19.8,15.7,19.8,15.7,19.9,15.6C19.9,15.7,19.9,15.7,19.9,15.6C19.9,15.6,19.9,15.6,19.9,15.6C19.9,15.6,19.9,15.6,19.9,15.6
				C19.9,15.6,19.9,15.6,19.9,15.6z"/>
			<path class="st9" d="M21.8,14.8c-0.1,0-0.1,0.2,0,0.1C21.9,14.9,21.9,14.7,21.8,14.8z"/>
		</g>
	</g>
</g>
</svg>
